<!-- Generator: Adobe Illustrator 22.0.1, SVG Export Plug-In  -->
<svg version="1.1"
	 xmlns="http://www.w3.org/2000/svg" xmlns:xlink="http://www.w3.org/1999/xlink" xmlns:a="http://ns.adobe.com/AdobeSVGViewerExtensions/3.0/"
	 x="0px" y="0px" width="248px" height="83px" viewBox="0 0 248 83" style="enable-background:new 0 0 248 83;"
	 xml:space="preserve">
<style type="text/css">
	.st0{fill:#FFFFFF;}
</style>
<defs>
</defs>
<path d="M247.6,11.4c-0.2-1.5-0.6-2.7-1.2-3.9c-1.2-2.5-3.3-4.6-5.8-5.8c-1.2-0.6-2.5-1-3.9-1.2S233.9,0,232.5,0c-0.6,0-1.2,0-1.9,0
	s-1.5,0-2.3,0H19.7c-0.6,0-1.5,0-2.3,0c-0.6,0-1.2,0-1.9,0c-1.5,0-2.7,0.2-4.1,0.4C10.2,0.6,8.7,1,7.5,1.7S5.2,3.1,4.1,4.1
	S2.3,6.2,1.7,7.5c-0.6,1.2-1,2.7-1.2,3.9C0.2,12.9,0,14.3,0,15.6c0,0.6,0,1.2,0,1.9v47.9c0,0.6,0,1.2,0,1.9c0,1.5,0.2,2.7,0.4,4.1
	C0.6,72.8,1,74,1.7,75.3c0.6,1.5,1.5,2.5,2.5,3.5s2.1,1.9,3.3,2.5s2.5,1,3.9,1.2s2.7,0.4,4.1,0.4c0.6,0,1.2,0,1.9,0
	c0.8,0,1.5,0,2.3,0h208.6c0.8,0,1.5,0,2.3,0c0.6,0,1.2,0,1.9,0c1.5,0,2.7-0.2,4.1-0.4c1.5-0.2,2.7-0.6,3.9-1.2s2.3-1.5,3.3-2.5
	s1.9-2.1,2.5-3.3s1-2.5,1.2-3.9c0.2-1.5,0.4-2.7,0.4-4.1c0-0.6,0-1.2,0-1.9c0-0.8,0-1.5,0-2.3V19.7c0-0.8,0-1.5,0-2.3
	c0-0.6,0-1.2,0-1.9C248,14.1,247.8,12.9,247.6,11.4z"/>
<g id="_Group__1_">
	<g id="_Group_2_1_">
		<g id="_Group_3_1_">
			<path id="_Path__1_" class="st0" d="M51.4,43.1c0-3.5,1.9-6.8,5-8.7c-1.9-2.7-5-4.4-8.3-4.6c-3.5-0.4-6.8,2.1-8.7,2.1
				c-1.9,0-4.6-2.1-7.5-2.1c-3.9,0.2-7.5,2.3-9.3,5.6c-3.9,6.8-1,17.2,2.9,22.8c1.9,2.7,4.1,5.8,7.1,5.8c2.9-0.2,3.9-1.9,7.5-1.9
				s4.4,1.9,7.5,1.9c3.1,0,5-2.7,6.8-5.6c1.5-1.9,2.5-4.1,3.1-6.4C53.7,50.8,51.4,47,51.4,43.1z"/>
			<path id="_Path_2_1_" class="st0" d="M45.6,26.3c1.7-2.1,2.5-4.6,2.3-7.3c-2.5,0.2-5,1.5-6.6,3.5c-1.7,1.9-2.5,4.4-2.3,7.1
				C41.7,29.6,44,28.4,45.6,26.3z"/>
		</g>
	</g>
	<g>
		<path class="st0" d="M87.7,57.2H78l-2.3,7.1h-4.1l9.3-25.7H85l9.3,25.7h-4.1L87.7,57.2z M79,54.1h7.9L83,42.7h-0.2L79,54.1z"/>
		<path class="st0" d="M114.5,54.9c0,5.8-3.1,9.5-7.9,9.5c-2.5,0.2-4.8-1.2-5.8-3.3l0,0v9.3h-3.9V45.6h3.7v3.1l0,0
			c1.2-2.1,3.5-3.3,6-3.3C111.2,45.2,114.5,49.1,114.5,54.9z M110.3,54.9c0-3.7-1.9-6.2-5-6.2c-2.9,0-5,2.5-5,6.2s2.1,6.2,5,6.2
			C108.5,61.1,110.3,58.7,110.3,54.9z"/>
		<path class="st0" d="M135,54.9c0,5.8-3.1,9.5-7.9,9.5c-2.5,0.2-4.8-1.2-5.8-3.3l0,0v9.3h-3.9V45.6h3.7v3.1l0,0
			c1.2-2.1,3.5-3.3,6-3.3C131.9,45.2,135,49.1,135,54.9z M131.1,54.9c0-3.7-1.9-6.2-5-6.2c-2.9,0-5,2.5-5,6.2s2.1,6.2,5,6.2
			C129.2,61.1,131.1,58.7,131.1,54.9L131.1,54.9z"/>
		<path class="st0" d="M148.7,57c0.2,2.5,2.7,4.1,6.2,4.1c3.3,0,5.6-1.7,5.6-3.9c0-2.1-1.5-3.1-4.8-3.9l-3.3-0.8
			c-4.8-1.2-6.8-3.3-6.8-6.8c0-4.4,3.9-7.5,9.3-7.5s9.1,3.1,9.3,7.5h-3.9c-0.2-2.5-2.3-4.1-5.4-4.1s-5.2,1.7-5.2,3.9
			c0,1.9,1.5,2.9,4.8,3.7l2.9,0.6c5.2,1.2,7.5,3.3,7.5,7.1c0,4.8-3.9,7.9-10,7.9c-5.8,0-9.5-2.9-9.7-7.7L148.7,57z"/>
		<path class="st0" d="M172.8,41v4.4h3.5v3.1h-3.5v10.4c0,1.7,0.6,2.3,2.3,2.3c0.4,0,0.8,0,1.2,0v3.1c-0.6,0.2-1.5,0.2-2.1,0.2
			c-3.7,0-5.2-1.5-5.2-5V48.7h-2.7v-3.1h2.7v-4.4h3.7V41z"/>
		<path class="st0" d="M178.6,54.9c0-5.8,3.5-9.5,8.9-9.5c5.4,0,8.9,3.7,8.9,9.5c0,6-3.5,9.5-8.9,9.5
			C181.9,64.5,178.6,60.7,178.6,54.9z M192.5,54.9c0-4.1-1.9-6.4-5-6.4s-5,2.3-5,6.4s1.9,6.4,5,6.4S192.5,58.9,192.5,54.9
			L192.5,54.9z"/>
		<path class="st0" d="M199.5,45.4h3.7v3.3l0,0c0.4-2.1,2.5-3.5,4.6-3.3c0.4,0,0.8,0,1.2,0.2v3.5c-0.6-0.2-1.2-0.2-1.7-0.2
			c-2.1,0-3.9,1.7-3.9,3.7c0,0.2,0,0.4,0,0.6v11.2h-3.9L199.5,45.4z"/>
		<path class="st0" d="M226.9,58.7c-0.6,3.3-3.9,5.8-8.1,5.8c-5.4,0-8.9-3.7-8.9-9.5s3.3-9.7,8.7-9.7c5.2,0,8.5,3.5,8.5,9.3v1.2
			h-13.3V56c-0.2,2.7,1.7,5,4.4,5.4c0.2,0,0.4,0,0.6,0c1.9,0.2,3.7-0.8,4.4-2.7L226.9,58.7z M213.8,53.1h9.3
			c0.2-2.5-1.9-4.6-4.4-4.8c-0.2,0-0.2,0-0.4,0C215.9,48.3,213.8,50.4,213.8,53.1L213.8,53.1z"/>
	</g>
</g>
<g>
	<path class="st0" d="M78.4,19c3.1-0.2,5.6,2.1,5.8,5c0,0.4,0,0.6,0,1c0,3.9-2.1,6.2-5.8,6.2h-4.6V18.8h4.6V19z M75.9,29.8h2.3
		c2.1,0.2,3.9-1.5,4.1-3.7c0-0.2,0-0.6,0-0.8c0.2-2.1-1.2-4.1-3.3-4.4c-0.2,0-0.4,0-0.8,0h-2.3V29.8z"/>
	<path class="st0" d="M86.5,26.7c-0.2-2.5,1.5-4.6,3.9-4.8c2.5-0.2,4.6,1.5,4.8,3.9c0,0.2,0,0.6,0,0.8c0.2,2.5-1.5,4.6-3.9,4.8
		c-2.5,0.2-4.6-1.5-4.8-3.9C86.5,27.3,86.5,27.1,86.5,26.7z M93.3,26.7c0-2.1-0.8-3.1-2.5-3.1s-2.5,1.2-2.5,3.1
		c0,2.1,0.8,3.3,2.5,3.3S93.3,28.8,93.3,26.7L93.3,26.7z"/>
	<path class="st0" d="M107,31.5h-1.9l-1.9-6.8h-0.2l-1.9,6.8h-1.9l-2.5-9.3h1.9l1.7,7.1h0.2l1.9-7.1h1.9l1.9,7.1h0.2l1.7-7.1h1.9
		L107,31.5z"/>
	<path class="st0" d="M111.8,22.2h1.9v1.5h0.2c0.4-1,1.7-1.7,2.7-1.7c1.7-0.2,3.1,1,3.3,2.9c0,0.2,0,0.4,0,0.6v6H118v-5.6
		c0-1.5-0.6-2.3-2.1-2.3c-1.2,0-2.3,0.8-2.3,2.1c0,0.2,0,0.2,0,0.4v5.4h-1.9L111.8,22.2z"/>
	<path class="st0" d="M122.6,18.4h1.9v13.1h-1.9V18.4z"/>
	<path class="st0" d="M126.9,26.7c-0.2-2.5,1.5-4.6,3.9-4.8s4.6,1.5,4.8,3.9c0,0.2,0,0.6,0,0.8c0.2,2.5-1.5,4.6-3.9,4.8
		c-2.5,0.2-4.6-1.5-4.8-3.9C126.9,27.3,126.9,27.1,126.9,26.7z M134,26.7c0-2.1-0.8-3.1-2.5-3.1c-1.7,0-2.5,1.2-2.5,3.1
		c0,2.1,0.8,3.3,2.5,3.3C132.9,30,134,28.8,134,26.7z"/>
	<path class="st0" d="M137.7,28.8c0-1.7,1.2-2.7,3.5-2.7l2.5-0.2v-0.8c0-1-0.6-1.5-1.9-1.5c-1,0-1.7,0.4-1.9,1h-1.9
		c0.2-1.7,1.7-2.7,3.7-2.7c2.3,0,3.7,1.2,3.7,3.1v6.4h-1.9v-1.2h-0.2c-0.6,1-1.7,1.5-2.9,1.5c-1.5,0.2-2.9-1-3.1-2.5
		C137.7,29,137.7,29,137.7,28.8z M143.7,28v-0.8l-2.3,0.2c-1.2,0-1.9,0.6-1.9,1.2c0,0.8,0.8,1.2,1.7,1.2
		C142.5,30.2,143.5,29.4,143.7,28C143.7,28.2,143.7,28.2,143.7,28z"/>
	<path class="st0" d="M147.9,26.7c0-2.9,1.5-4.8,3.9-4.8c1.2,0,2.3,0.6,2.9,1.7h0.2v-5.2h1.9v13.1h-1.9V30h-0.2
		c-0.6,1-1.7,1.7-2.9,1.7C149.5,31.7,147.9,29.8,147.9,26.7z M149.9,26.7c0,2.1,1,3.1,2.5,3.1s2.5-1.2,2.5-3.1s-1-3.1-2.5-3.1
		C150.8,23.6,149.9,24.9,149.9,26.7L149.9,26.7z"/>
	<path class="st0" d="M164.3,26.7c-0.2-2.5,1.5-4.6,3.9-4.8c2.5-0.2,4.6,1.5,4.8,3.9c0,0.2,0,0.6,0,0.8c0.2,2.5-1.5,4.6-3.9,4.8
		s-4.6-1.5-4.8-3.9C164.3,27.3,164.3,27.1,164.3,26.7z M171.3,26.7c0-2.1-0.8-3.1-2.5-3.1c-1.7,0-2.5,1.2-2.5,3.1
		c0,2.1,0.8,3.3,2.5,3.3C170.3,30,171.3,28.8,171.3,26.7z"/>
	<path class="st0" d="M175.7,22.2h1.9v1.5h0.2c0.4-1,1.7-1.7,2.7-1.7c1.7-0.2,3.1,1,3.3,2.9c0,0.2,0,0.4,0,0.6v6h-1.9v-5.6
		c0-1.5-0.6-2.3-2.1-2.3c-1.2,0-2.3,0.8-2.3,2.1c0,0.2,0,0.2,0,0.4v5.4h-1.9V22.2z"/>
	<path class="st0" d="M193.9,19.9v2.3h2.1v1.7h-2.1v4.8c0,1,0.4,1.5,1.2,1.5c0.2,0,0.4,0,0.6,0v1.5c-0.4,0-0.6,0-1,0
		c-2.1,0-2.9-0.6-2.9-2.5v-5.2h-1.5v-1.5h1.5v-2.5H193.9z"/>
	<path class="st0" d="M198.5,18.4h1.9v5.2h0.2c0.4-1,1.7-1.9,2.9-1.7c1.7,0,3.1,1.2,3.3,2.9c0,0.2,0,0.4,0,0.6v6h-1.9v-5.6
		c0-1.5-0.6-2.3-2.1-2.3c-1.2,0-2.3,0.8-2.3,2.1c0,0.2,0,0.2,0,0.4v5.4h-1.9L198.5,18.4z"/>
	<path class="st0" d="M217.4,29c-0.4,1.7-2.3,2.9-4.1,2.7c-2.3,0-4.4-1.9-4.4-4.1c0-0.2,0-0.4,0-0.6c-0.4-2.3,1.2-4.6,3.7-4.8
		c0.2,0,0.4,0,0.6,0c2.7,0,4.1,1.9,4.1,4.8v0.6h-6.6l0,0c-0.2,1.5,0.8,2.5,2.3,2.7h0.2c0.8,0.2,1.9-0.4,2.3-1L217.4,29z M210.7,25.9
		h4.8c0-1.2-0.8-2.3-2.1-2.5h-0.2C212,23.6,210.7,24.6,210.7,25.9L210.7,25.9L210.7,25.9z"/>
</g>
</svg>
