<?xml version="1.0" encoding="utf-8"?>
<!-- Generator: Adobe Illustrator 22.1.0, SVG Export Plug-In . SVG Version: 6.00 Build 0)  -->
<svg version="1.1" id="Ebene_1" xmlns="http://www.w3.org/2000/svg" xmlns:xlink="http://www.w3.org/1999/xlink" x="300px" y="77px"
	 viewBox="0 0 1236 318" style="enable-background:new 0 0 1236 318;" xml:space="preserve">
<style type="text/css">
	.st0{fill:#302E2E;}
	.st1{fill:#4ADEB5;}
</style>
<polygon class="st0" points="17,13.7 17,299.4 200.2,299.4 200.2,246.5 75.2,246.5 75.2,184.8 181.2,184.8 181.2,132.3 75.2,132.3 
	75.2,66.6 196.2,66.6 196.2,13.7 "/>
<polygon class="st0" points="272.8,13.7 272.8,299.4 439,299.4 439,246.5 331.4,246.5 331.4,13.7 "/>
<path class="st0" d="M1162.4,107.4c0,27.4-18.6,39.9-35.9,39.9h-55.7V66.6h57.3C1153.3,66.6,1162.4,91,1162.4,107.4 M1199.1,43
	c-16.4-19.2-40.6-29.3-70.1-29.3h-116.7v285.6h58.6v-99.2h58.2c29.5,0,53.8-10,70.1-28.9c14.1-16.4,21.9-39.1,21.9-63.9
	C1221,82.4,1213.2,59.6,1199.1,43"/>
<path class="st1" d="M655.6,12.3c0.4,3.4,0.6,6.9,0.6,10.4c0,54.2-44.1,98.3-98.3,98.3c-54.2,0-98.3-44.1-98.3-98.3
	c0-3.5,0.2-7,0.6-10.4h-57.5c-0.2,3.4-0.4,6.9-0.4,10.4c0,85.8,69.8,155.6,155.6,155.6c85.8,0,155.6-69.8,155.6-155.6
	c0-3.5-0.2-7-0.4-10.4H655.6z"/>
<path class="st1" d="M714.5,300.8c-0.9-5.5-1.5-11.1-1.5-16.8c0-54.2,44.1-98.3,98.3-98.3c54.2,0,98.3,44.1,98.3,98.3
	c0,5.7-0.5,11.3-1.5,16.8H966c0.6-5.5,0.9-11.1,0.9-16.8c0-85.8-69.8-155.6-155.6-155.6S655.7,198.2,655.7,284
	c0,5.7,0.3,11.3,0.9,16.8H714.5z"/>
</svg>
