<!-- Generator: Adobe Illustrator 22.0.1, SVG Export Plug-In  -->
<svg version="1.1"
	 xmlns="http://www.w3.org/2000/svg" xmlns:xlink="http://www.w3.org/1999/xlink" xmlns:a="http://ns.adobe.com/AdobeSVGViewerExtensions/3.0/"
	 x="0px" y="0px" width="248px" height="83px" viewBox="0 0 248 83" style="enable-background:new 0 0 248 83;"
	 xml:space="preserve">
<style type="text/css">
	.st0{fill:#FFFFFF;}
	.st1{fill:#FFFFFF;enable-background:new    ;}
</style>
<defs>
</defs>
<path d="M247.6,11.4c-0.2-1.5-0.6-2.7-1.2-3.9c-1.2-2.5-3.3-4.6-5.8-5.8c-1.2-0.6-2.5-1-3.9-1.2S233.9,0,232.5,0c-0.6,0-1.2,0-1.9,0
	s-1.5,0-2.3,0H19.7c-0.6,0-1.5,0-2.3,0c-0.6,0-1.2,0-1.9,0c-1.5,0-2.7,0.2-4.1,0.4C10.2,0.6,8.7,1,7.5,1.7S5.2,3.1,4.1,4.1
	S2.3,6.2,1.7,7.5c-0.6,1.2-1,2.7-1.2,3.9C0.2,12.9,0,14.3,0,15.6c0,0.6,0,1.2,0,1.9v47.9c0,0.6,0,1.2,0,1.9c0,1.5,0.2,2.7,0.4,4.1
	C0.6,72.8,1,74,1.7,75.3c0.6,1.5,1.5,2.5,2.5,3.5s2.1,1.9,3.3,2.5s2.5,1,3.9,1.2s2.7,0.4,4.1,0.4c0.6,0,1.2,0,1.9,0
	c0.8,0,1.5,0,2.3,0h208.6c0.8,0,1.5,0,2.3,0c0.6,0,1.2,0,1.9,0c1.5,0,2.7-0.2,4.1-0.4c1.5-0.2,2.7-0.6,3.9-1.2s2.3-1.5,3.3-2.5
	s1.9-2.1,2.5-3.3s1-2.5,1.2-3.9c0.2-1.5,0.4-2.7,0.4-4.1c0-0.6,0-1.2,0-1.9c0-0.8,0-1.5,0-2.3V19.7c0-0.8,0-1.5,0-2.3
	c0-0.6,0-1.2,0-1.9C248,14.1,247.8,12.9,247.6,11.4z"/>
<path class="st0" d="M86.5,24.3c0,1.5-0.4,2.7-1.3,3.7c-1.1,1.1-2.4,1.6-4,1.6s-2.9-0.5-4-1.6c-1.1-1.1-1.6-2.4-1.6-4
	c0-1.6,0.5-2.9,1.6-4s2.4-1.6,4-1.6c0.7,0,1.5,0.2,2.2,0.5s1.3,0.7,1.6,1.3L84.2,21c-0.7-0.9-1.6-1.3-2.9-1.3
	c-1.1,0-2.2,0.4-2.9,1.3c-0.9,0.7-1.3,1.8-1.3,3.1c0,1.3,0.4,2.4,1.3,3.1c0.9,0.7,1.8,1.3,2.9,1.3c1.3,0,2.2-0.4,3.1-1.3
	c0.5-0.5,0.9-1.3,0.9-2.2h-4v-1.5h5.3L86.5,24.3L86.5,24.3z M95,19.8H90v3.5h4.6v1.3H90V28H95v1.5h-6.4v-11H95V19.8z M101,29.5h-1.5
	v-9.7h-3.1v-1.3h7.7v1.3H101V29.5z M109.5,29.5v-11h1.5v11H109.5z M117.2,29.5h-1.5v-9.7h-3.1v-1.3h7.5v1.3H117v9.7H117.2z
	 M134.6,28c-1.1,1.1-2.4,1.6-4,1.6c-1.6,0-2.9-0.5-4-1.6c-1.1-1.1-1.6-2.4-1.6-4c0-1.6,0.5-2.9,1.6-4s2.4-1.6,4-1.6
	c1.6,0,2.9,0.5,4,1.6c1.1,1.1,1.6,2.4,1.6,4C136.2,25.6,135.7,26.9,134.6,28z M127.6,27.1c0.7,0.7,1.8,1.3,2.9,1.3
	c1.1,0,2.2-0.4,2.9-1.3c0.7-0.7,1.3-1.8,1.3-3.1c0-1.3-0.4-2.4-1.3-3.1c-0.7-0.7-1.8-1.3-2.9-1.3c-1.1,0-2.2,0.4-2.9,1.3
	c-0.7,0.7-1.3,1.8-1.3,3.1C126.3,25.3,126.7,26.4,127.6,27.1z M138.2,29.5v-11h1.6l5.3,8.6v-8.6h1.5v11h-1.5l-5.7-9v9H138.2
	L138.2,29.5z"/>
<path class="st0" d="M124.5,45.6c-4.4,0-7.9,3.3-7.9,7.9c0,4.4,3.5,7.9,7.9,7.9s7.9-3.3,7.9-7.9C132.4,48.7,128.9,45.6,124.5,45.6z
	 M124.5,58.1c-2.4,0-4.4-2-4.4-4.8s2-4.8,4.4-4.8s4.4,1.8,4.4,4.8C128.9,56.1,126.9,58.1,124.5,58.1z M107.4,45.6
	c-4.4,0-7.9,3.3-7.9,7.9c0,4.4,3.5,7.9,7.9,7.9c4.4,0,7.9-3.3,7.9-7.9C115.3,48.7,111.8,45.6,107.4,45.6z M107.4,58.1
	c-2.4,0-4.4-2-4.4-4.8s2-4.8,4.4-4.8c2.4,0,4.4,1.8,4.4,4.8C111.8,56.1,109.8,58.1,107.4,58.1z M87.1,48v3.3H95
	c-0.2,1.8-0.9,3.3-1.8,4.2c-1.1,1.1-2.9,2.4-6,2.4c-4.9,0-8.6-3.8-8.6-8.8s3.8-8.8,8.6-8.8c2.6,0,4.6,1.1,6,2.4l2.4-2.4
	c-2-1.8-4.6-3.3-8.2-3.3C80.7,37,75,42.5,75,49.1s5.7,12.1,12.3,12.1c3.7,0,6.2-1.1,8.4-3.5c2.2-2.2,2.9-5.3,2.9-7.7
	c0-0.7,0-1.5-0.2-2L87.1,48L87.1,48z M170.3,50.6c-0.7-1.8-2.6-4.9-6.6-4.9c-4,0-7.3,3.1-7.3,7.9c0,4.4,3.3,7.9,7.7,7.9
	c3.5,0,5.7-2.2,6.4-3.5l-2.6-1.8c-0.9,1.3-2,2.2-3.8,2.2s-2.9-0.7-3.8-2.4l10.4-4.4L170.3,50.6L170.3,50.6z M159.7,53.1
	c0-2.9,2.4-4.6,4-4.6c1.3,0,2.6,0.7,2.9,1.6L159.7,53.1L159.7,53.1z M151.1,60.6h3.5V37.7h-3.5V60.6z M145.6,47.3
	c-0.9-0.9-2.4-1.8-4.2-1.8c-3.8,0-7.5,3.5-7.5,7.9s3.5,7.7,7.5,7.7c1.8,0,3.3-0.9,4-1.8h0.2v1.1c0,2.9-1.6,4.6-4.2,4.6
	c-2,0-3.5-1.5-3.8-2.7l-2.9,1.3c0.9,2,3.1,4.6,7,4.6c4,0,7.3-2.4,7.3-8.1V46h-3.3L145.6,47.3L145.6,47.3z M141.5,58.1
	c-2.4,0-4.4-2-4.4-4.8s2-4.8,4.4-4.8s4.2,2,4.2,4.8S143.9,58.1,141.5,58.1z M186.3,37.7H178v22.9h3.5V52h4.8c3.8,0,7.5-2.7,7.5-7.1
	S190.1,37.7,186.3,37.7z M186.4,48.7h-4.9v-7.9h4.9c2.6,0,4,2.2,4,3.8C190.3,46.7,188.8,48.7,186.4,48.7L186.4,48.7z M207.5,45.4
	c-2.6,0-5.1,1.1-6,3.5l3.1,1.3c0.7-1.3,1.8-1.6,3.1-1.6c1.8,0,3.5,1.1,3.7,2.9v0.2c-0.5-0.4-2-0.9-3.5-0.9c-3.3,0-6.6,1.8-6.6,5.1
	c0,3.1,2.7,5.1,5.7,5.1c2.4,0,3.5-1.1,4.4-2.2h0.2v1.8h3.3v-8.8C214.5,47.8,211.4,45.4,207.5,45.4L207.5,45.4z M207.1,58.1
	c-1.1,0-2.7-0.5-2.7-2c0-1.8,2-2.4,3.7-2.4c1.5,0,2.2,0.4,3.1,0.7C210.8,56.6,209,58.1,207.1,58.1z M226.4,46l-3.8,9.9h-0.2l-4-9.9
	h-3.7l6,13.9l-3.5,7.7h3.5l9.3-21.6H226.4L226.4,46z M195.6,60.6h3.5V37.7h-3.5V60.6z"/>
<path class="st1" d="M60.1,41.8c-0.2-0.7-0.7-1.4-1.8-2l-9-5.1l0,0L22.6,19.4c-1.6-0.9-3-0.8-3.8,0.1l-0.1-0.1
	c-0.5,0.5-0.7,1.2-0.7,2c0,0.2,0,0.4,0,0.5v0.2v40.1v0.2c0,0.1,0,0.2,0,0.2c0,0.2,0,0.3,0,0.5c0,0,0,0.1,0,0.1
	c0.1,0.6,0.3,1.2,0.7,1.6h0c0,0,0,0.1,0.1,0.1L18.7,65l0.1,0.1l-0.1,0.1c0.9,0.9,2.2,0.9,3.8,0.2l26.5-15.3l0,0l9.2-4.9
	C60,44.3,60.6,43,60.1,41.8z"/>
</svg>
