<svg width="112" height="112" viewBox="0 0 112 112" fill="none" xmlns="http://www.w3.org/2000/svg">
<g filter="url(#filter0_d)">
<circle cx="56" cy="56" r="36" fill="#4ADEB5"/>
</g>
<path d="M68.8198 67.664V74H43.4277V68.96L56.3878 56.72C57.7638 55.408 58.6918 54.288 59.1718 53.36C59.6518 52.4 59.8918 51.456 59.8918 50.528C59.8918 49.184 59.4278 48.16 58.4998 47.456C57.6038 46.72 56.2758 46.352 54.5157 46.352C53.0438 46.352 51.7158 46.64 50.5318 47.216C49.3478 47.76 48.3558 48.592 47.5558 49.712L41.8918 46.064C43.2038 44.112 45.0118 42.592 47.3158 41.504C49.6198 40.384 52.2598 39.824 55.2358 39.824C57.7318 39.824 59.9078 40.24 61.7638 41.072C63.6518 41.872 65.1078 43.024 66.1318 44.528C67.1878 46 67.7158 47.744 67.7158 49.76C67.7158 51.584 67.3318 53.296 66.5638 54.896C65.7958 56.496 64.3078 58.32 62.0998 60.368L54.3718 67.664H68.8198Z" fill="white"/>
<defs>
<filter id="filter0_d" x="0" y="0" width="112" height="112" filterUnits="userSpaceOnUse" color-interpolation-filters="sRGB">
<feFlood flood-opacity="0" result="BackgroundImageFix"/>
<feColorMatrix in="SourceAlpha" type="matrix" values="0 0 0 0 0 0 0 0 0 0 0 0 0 0 0 0 0 0 127 0"/>
<feOffset/>
<feGaussianBlur stdDeviation="10"/>
<feColorMatrix type="matrix" values="0 0 0 0 0 0 0 0 0 0 0 0 0 0 0 0 0 0 0.25 0"/>
<feBlend mode="normal" in2="BackgroundImageFix" result="effect1_dropShadow"/>
<feBlend mode="normal" in="SourceGraphic" in2="effect1_dropShadow" result="shape"/>
</filter>
</defs>
</svg>
