<svg width="30" height="30" viewBox="0 0 30 30" fill="none" xmlns="http://www.w3.org/2000/svg">
<path d="M27.591 13.5C27.5902 15.4051 27.1021 17.2783 26.1732 18.9415C25.2443 20.6048 23.9054 22.0028 22.2839 23.0027C20.6623 24.0027 18.812 24.5712 16.9087 24.6544C15.0055 24.7376 13.1126 24.3326 11.41 23.478L14.266 20.586C15.213 21.1068 16.2673 21.4025 17.347 21.45H17.358C18.2018 21.4493 19.0369 21.2791 19.8137 20.9494C20.5905 20.6198 21.2932 20.1374 21.88 19.531C23.5083 17.8125 24.4047 15.5283 24.38 13.161C24.3725 12.3529 24.2319 11.5515 23.964 10.789C23.9004 10.6009 23.7899 10.4321 23.6429 10.2985C23.4959 10.1649 23.3174 10.071 23.124 10.0256C22.9307 9.98015 22.729 9.98472 22.5379 10.0389C22.3469 10.093 22.1728 10.1949 22.032 10.335L18.437 13.913L16.437 13.459L15.968 11.489L19.584 7.90001C19.7256 7.75983 19.8291 7.58578 19.8845 7.39437C19.94 7.20297 19.9456 7.00057 19.9008 6.80639C19.856 6.61222 19.7623 6.43271 19.6286 6.28493C19.495 6.13714 19.3257 6.02598 19.137 5.96201C18.3682 5.6744 17.5574 5.51495 16.737 5.49001H16.72C14.7614 5.49144 12.8524 6.10621 11.261 7.24801C10.4051 7.84269 9.70515 8.63486 9.22036 9.55744C8.73557 10.48 8.48024 11.5058 8.47599 12.548C8.52299 13.6186 8.80971 14.665 9.31499 15.61L6.44199 18.506C5.24251 16.1149 4.94121 13.3727 5.5929 10.7783C6.2446 8.18381 7.806 5.90949 9.99302 4.36907C12.18 2.82866 14.8474 2.12451 17.5098 2.38474C20.1721 2.64496 22.6526 3.85227 24.5 5.78701H23.148C22.838 5.78701 22.5406 5.91017 22.3214 6.1294C22.1022 6.34863 21.979 6.64597 21.979 6.95601C21.979 7.26605 22.1022 7.56339 22.3214 7.78262C22.5406 8.00185 22.838 8.12501 23.148 8.12501H26.217C26.8912 8.12421 27.5376 7.85604 28.0143 7.3793C28.491 6.90257 28.7592 6.25621 28.76 5.58201V2.57201C28.76 2.26197 28.6368 1.96463 28.4176 1.7454C28.1984 1.52617 27.901 1.40301 27.591 1.40301C27.281 1.40301 26.9836 1.52617 26.7644 1.7454C26.5452 1.96463 26.422 2.26197 26.422 2.57201V4.42801C25.1582 3.03186 23.6155 1.91639 21.8937 1.15366C20.1719 0.390932 18.3092 -0.00208335 16.426 8.30521e-06C14.0574 0.000673178 11.7307 0.624159 9.67919 1.80792C7.62768 2.99169 5.92351 4.69411 4.73764 6.74441C3.55177 8.79471 2.92589 11.1208 2.9228 13.4893C2.9197 15.8579 3.53949 18.1856 4.71999 20.239L1.03399 23.949C0.376286 24.602 0.00442952 25.4892 -7.42112e-06 26.416C-0.00376354 26.8773 0.0848089 27.3348 0.260496 27.7614C0.436184 28.188 0.695436 28.5751 1.02299 28.9C1.34793 29.226 1.73397 29.4846 2.15901 29.6612C2.58405 29.8378 3.03974 29.9288 3.49999 29.929H3.50599C3.96676 29.9316 4.42346 29.8428 4.84967 29.6677C5.27588 29.4927 5.66313 29.2348 5.98899 28.909L6.25199 28.646C6.36349 28.5382 6.45241 28.4093 6.51358 28.2667C6.57476 28.1242 6.60695 27.9709 6.6083 27.8158C6.60964 27.6607 6.58011 27.5069 6.52142 27.3633C6.46273 27.2198 6.37606 27.0893 6.26645 26.9796C6.15684 26.8698 6.02649 26.783 5.88299 26.7241C5.73949 26.6653 5.58571 26.6355 5.43061 26.6367C5.27552 26.6379 5.1222 26.6699 4.97959 26.7309C4.83699 26.7919 4.70795 26.8806 4.59999 26.992L4.33599 27.256C4.22666 27.3639 4.09701 27.4491 3.95454 27.5066C3.81207 27.5641 3.65962 27.5928 3.50599 27.591C3.35118 27.5912 3.19787 27.5607 3.05491 27.5013C2.91194 27.4419 2.78214 27.3548 2.67299 27.245C2.56516 27.1383 2.47972 27.0112 2.42168 26.8711C2.36364 26.731 2.33416 26.5807 2.33499 26.429C2.33671 26.2743 2.36895 26.1214 2.42987 25.9791C2.49079 25.8369 2.57919 25.708 2.68999 25.6L11.644 16.587C11.8514 16.3781 11.9724 16.0987 11.9828 15.8045C11.9932 15.5103 11.8922 15.223 11.7 15C11.1817 14.2835 10.8757 13.4354 10.817 12.553C10.8262 11.8787 10.9977 11.2165 11.3169 10.6224C11.6361 10.0283 12.0937 9.51986 12.651 9.14001C13.7276 8.36903 15.0018 7.92117 16.324 7.84901L13.85 10.294C13.7077 10.435 13.604 10.6103 13.5489 10.8029C13.4937 10.9955 13.4889 11.199 13.535 11.394L14.325 14.711C14.3757 14.9235 14.4849 15.1176 14.6402 15.2712C14.7956 15.4248 14.9909 15.5318 15.204 15.58L18.543 16.337C18.7352 16.3805 18.9352 16.3747 19.1246 16.3201C19.3139 16.2656 19.4864 16.1641 19.626 16.025L22.026 13.64C21.9504 15.2227 21.312 16.7263 20.226 17.88C19.8542 18.2663 19.409 18.5745 18.9165 18.7864C18.424 18.9983 17.8941 19.1097 17.358 19.114H17.35C16.4645 19.0547 15.6154 18.7392 14.906 18.206C14.6827 18.0032 14.3897 17.8945 14.0881 17.9027C13.7866 17.9109 13.4999 18.0353 13.288 18.25L8.69299 22.9C8.47506 23.1201 8.35339 23.4177 8.3547 23.7275C8.35602 24.0372 8.4802 24.3338 8.69999 24.552L8.70799 24.56C8.76111 24.6126 8.81903 24.6602 8.88099 24.702C10.9125 26.0725 13.2786 26.8642 15.7258 26.9922C18.173 27.1202 20.6088 26.5797 22.7722 25.4286C24.9355 24.2776 26.7448 22.5594 28.0059 20.4583C29.2671 18.3572 29.9326 15.9525 29.931 13.502C29.931 13.192 29.8078 12.8946 29.5886 12.6754C29.3694 12.4562 29.072 12.333 28.762 12.333C28.452 12.333 28.1546 12.4562 27.9354 12.6754C27.7162 12.8946 27.593 13.192 27.593 13.502L27.591 13.5Z" fill="#4ADEB5"/>
<path d="M11.409 23.4601L14.265 20.5681C15.212 21.0889 16.2663 21.3846 17.346 21.4321H17.357C18.2009 21.4314 19.036 21.2612 19.8128 20.9315C20.5896 20.6019 21.2922 20.1195 21.879 19.5131C23.5073 17.7946 24.4038 15.5104 24.379 13.1431C24.3702 12.3358 24.2286 11.5355 23.96 10.7741C23.8964 10.586 23.7859 10.4172 23.6389 10.2836C23.492 10.1501 23.3134 10.0561 23.1201 10.0107C22.9267 9.96526 22.725 9.96984 22.534 10.024C22.3429 10.0781 22.1688 10.18 22.028 10.3201L18.433 13.8951L16.433 13.4411L15.962 11.4741L19.584 7.88612C19.7261 7.74598 19.83 7.57179 19.8857 7.38014C19.9415 7.18849 19.9472 6.98576 19.9024 6.79127C19.8576 6.59678 19.7637 6.417 19.6297 6.26906C19.4957 6.12112 19.3261 6.00994 19.137 5.94612C18.3676 5.6583 17.5561 5.49885 16.735 5.47412H16.72C14.7614 5.47555 12.8524 6.09032 11.261 7.23212C10.4051 7.8268 9.70518 8.61897 9.22039 9.54155C8.7356 10.4641 8.48027 11.4899 8.47602 12.5321C8.52302 13.6027 8.80973 14.6491 9.31502 15.5941L6.44202 18.4851L1.03502 23.9281C0.376943 24.581 0.00471853 25.4682 1.67613e-05 26.3951C-0.00307168 26.8556 0.0858252 27.3121 0.261493 27.7378C0.437162 28.1635 0.696065 28.5498 1.02302 28.8741C1.34755 29.201 1.7334 29.4606 2.15846 29.638C2.58351 29.8154 3.03941 29.9072 3.50002 29.9081H3.50602C3.96678 29.9107 4.42349 29.8219 4.8497 29.6469C5.27591 29.4718 5.66315 29.2139 5.98902 28.8881L6.25202 28.6251C6.36868 28.5186 6.46253 28.3895 6.5279 28.2456C6.59327 28.1018 6.62881 27.9462 6.63236 27.7882C6.63591 27.6303 6.6074 27.4732 6.54856 27.3266C6.48972 27.18 6.40177 27.0468 6.29001 26.9351C6.17826 26.8234 6.04502 26.7355 5.89835 26.6768C5.75168 26.618 5.59463 26.5896 5.43667 26.5933C5.27872 26.5969 5.12314 26.6325 4.97934 26.698C4.83554 26.7635 4.7065 26.8574 4.60002 26.9741L4.33602 27.2381C4.22668 27.3461 4.09703 27.4312 3.95457 27.4887C3.8121 27.5462 3.65964 27.5749 3.50602 27.5731C3.35121 27.5733 3.1979 27.5428 3.05493 27.4834C2.91196 27.424 2.78216 27.3369 2.67302 27.2271C2.56519 27.1205 2.47974 26.9933 2.4217 26.8532C2.36366 26.7131 2.33419 26.5628 2.33502 26.4111C2.33634 26.2566 2.36811 26.1038 2.42851 25.9616C2.48891 25.8193 2.57675 25.6904 2.68702 25.5821L11.641 16.5691C11.8512 16.3602 11.9741 16.0793 11.9851 15.7833C11.996 15.4872 11.8941 15.198 11.7 14.9741C11.1817 14.2576 10.8757 13.4095 10.817 12.5271C10.8262 11.8528 10.9977 11.1906 11.3169 10.5965C11.6362 10.0024 12.0938 9.49397 12.651 9.11412C13.7272 8.34386 15.0006 7.89637 16.322 7.82412L13.85 10.2741C13.7077 10.4152 13.604 10.5904 13.5489 10.783C13.4937 10.9756 13.4889 11.1791 13.535 11.3741L14.325 14.6911C14.3757 14.9036 14.4849 15.0977 14.6403 15.2513C14.7956 15.4049 14.9909 15.5119 15.204 15.5601L18.543 16.3171C18.7352 16.3606 18.9353 16.3548 19.1246 16.3003C19.3139 16.2457 19.4864 16.1442 19.626 16.0051L22.026 13.6201C21.9504 15.2028 21.312 16.7064 20.226 17.8601C19.8543 18.2465 19.409 18.5546 18.9165 18.7665C18.424 18.9784 17.8942 19.0898 17.358 19.0941H17.35C16.4646 19.0348 15.6154 18.7193 14.906 18.1861C14.6827 17.9833 14.3897 17.8746 14.0882 17.8828C13.7866 17.891 13.4999 18.0154 13.288 18.2301L8.69302 22.8831C8.47631 23.1031 8.35541 23.3998 8.35672 23.7086C8.35803 24.0173 8.48145 24.313 8.70002 24.5311L8.70802 24.5391C8.70802 24.5391 9.89502 25.1291 11.409 23.4601Z" fill="white"/>
</svg>
