<svg width="30" height="30" viewBox="0 0 30 30" fill="none" xmlns="http://www.w3.org/2000/svg">
<path d="M20.039 30H1.172C0.861166 30 0.563064 29.8765 0.343271 29.6567C0.123478 29.4369 0 29.1388 0 28.828C0 28.5172 0.123478 28.2191 0.343271 27.9993C0.563064 27.7795 0.861166 27.656 1.172 27.656H2.344V12.982C1.65929 12.7387 1.06654 12.2896 0.646925 11.6964C0.227312 11.1031 0.00135492 10.3947 0 9.668L0 3.515C0.00105869 2.58309 0.371728 1.68965 1.03069 1.03069C1.68965 0.371728 2.58309 0.00105869 3.515 0L17.695 0C18.627 0.00105816 19.5205 0.371695 20.1797 1.03063C20.8388 1.68956 21.2097 2.583 21.211 3.515V9.668C21.2097 10.6 20.8388 11.4934 20.1797 12.1524C19.5205 12.8113 18.627 13.1819 17.695 13.183H4.687V27.656H16.465V17.285C16.465 16.9742 16.5885 16.6761 16.8083 16.4563C17.0281 16.2365 17.3262 16.113 17.637 16.113C17.9478 16.113 18.2459 16.2365 18.4657 16.4563C18.6855 16.6761 18.809 16.9742 18.809 17.285V22.734H24.816C25.0414 22.7337 25.2574 22.6441 25.4167 22.4847C25.5761 22.3254 25.6657 22.1094 25.666 21.884V10.51L23.976 9.1C23.8442 8.98998 23.7382 8.85234 23.6654 8.69682C23.5927 8.5413 23.555 8.37169 23.555 8.2V1.172C23.555 0.861166 23.6785 0.563064 23.8983 0.343271C24.1181 0.123478 24.4162 0 24.727 0C25.0378 0 25.3359 0.123478 25.5557 0.343271C25.7755 0.563064 25.899 0.861166 25.899 1.172V3.515H27.657V1.172C27.657 0.861166 27.7805 0.563064 28.0003 0.343271C28.2201 0.123478 28.5182 0 28.829 0C29.1398 0 29.4379 0.123478 29.6577 0.343271C29.8775 0.563064 30.001 0.861166 30.001 1.172V8.2C30.0005 8.36635 29.9645 8.53069 29.8955 8.68207C29.8266 8.83346 29.7262 8.96842 29.601 9.078L28.001 10.486V21.884C27.9994 22.7304 27.6625 23.5418 27.0641 24.1404C26.4657 24.739 25.6544 25.0761 24.808 25.078H18.808V27.656H20.039C20.3498 27.656 20.6479 27.7795 20.8677 27.9993C21.0875 28.2191 21.211 28.5172 21.211 28.828C21.211 29.1388 21.0875 29.4369 20.8677 29.6567C20.6479 29.8765 20.3498 30 20.039 30ZM6.966 4.965C7.15146 4.96433 7.33447 5.00734 7.50021 5.09056C7.66595 5.17378 7.80976 5.29486 7.92 5.444L11.674 10.588H17.655C17.9604 10.5917 18.2548 10.4743 18.4737 10.2613C18.6927 10.0484 18.8183 9.75737 18.823 9.452V3.488C18.8183 3.18263 18.6927 2.89159 18.4737 2.67866C18.2548 2.46572 17.9604 2.34826 17.655 2.352H3.521C3.21562 2.34826 2.9212 2.46572 2.70227 2.67866C2.48334 2.89159 2.35774 3.18263 2.353 3.488V9.453C2.35774 9.75837 2.48334 10.0494 2.70227 10.2623C2.9212 10.4753 3.21562 10.5927 3.521 10.589H8.809L6.015 6.759C5.92664 6.63918 5.86338 6.50275 5.82902 6.3579C5.79465 6.21304 5.78988 6.06274 5.815 5.916C5.84055 5.76674 5.89596 5.62418 5.97792 5.49685C6.05989 5.36952 6.16671 5.26005 6.292 5.175C6.49006 5.03803 6.7252 4.96477 6.966 4.965ZM25.882 5.882V7.533L26.802 8.233L27.647 7.55V5.882H25.882Z" fill="white"/>
<path d="M8.26998 25.42C8.27128 25.4629 8.28156 25.505 8.30018 25.5436C8.31879 25.5822 8.34532 25.6165 8.37804 25.6442C8.41075 25.672 8.44893 25.6925 8.4901 25.7045C8.53126 25.7165 8.57449 25.7198 8.61698 25.714C8.75869 25.7127 8.89416 25.6556 8.99398 25.555L14.263 19.785C14.3676 19.6617 14.4358 19.5117 14.4598 19.3518C14.4839 19.1918 14.4628 19.0284 14.399 18.8798C14.3352 18.7312 14.2312 18.6034 14.0987 18.5106C13.9662 18.4179 13.8104 18.364 13.649 18.355H11.064L12.846 15H8.92198L6.57398 19.719C6.47536 19.8956 6.42376 20.0946 6.42414 20.2969C6.42451 20.4992 6.47684 20.698 6.57612 20.8743C6.67539 21.0506 6.81828 21.1984 6.99108 21.3036C7.16389 21.4087 7.36081 21.4678 7.56298 21.475H9.80398L8.30398 25.275C8.2831 25.3206 8.27154 25.3699 8.26998 25.42Z" fill="#4ADEB5"/>
</svg>
