<svg width="31" height="30" viewBox="0 0 31 30" fill="none" xmlns="http://www.w3.org/2000/svg">
<path d="M30.2 16.9463L18.561 28.8973C18.238 29.2309 17.8511 29.4961 17.4236 29.6773C16.996 29.8584 16.5364 29.9517 16.072 29.9517C15.6077 29.9517 15.148 29.8584 14.7205 29.6773C14.2929 29.4961 13.9061 29.2309 13.583 28.8973L1.80701 16.9533C1.42087 16.5574 1.15847 16.0574 1.05191 15.5147C0.945356 14.972 0.999253 14.4099 1.20701 13.8973C1.40642 13.3887 1.75405 12.9517 2.20482 12.6431C2.65559 12.3344 3.1887 12.1683 3.73501 12.1663H7.62001V8.67835C7.62001 8.36751 7.74349 8.06941 7.96328 7.84962C8.18308 7.62983 8.48118 7.50635 8.79201 7.50635C9.10285 7.50635 9.40095 7.62983 9.62074 7.84962C9.84054 8.06941 9.96401 8.36751 9.96401 8.67835V13.3683C9.96748 13.6828 9.84601 13.9858 9.62627 14.2108C9.40653 14.4358 9.10648 14.5644 8.79201 14.5683H3.73501C3.65647 14.5661 3.57923 14.5888 3.51437 14.6332C3.44952 14.6776 3.40039 14.7413 3.37401 14.8153C3.34131 14.8871 3.33183 14.9673 3.34689 15.0448C3.36195 15.1222 3.40079 15.193 3.45801 15.2473L15.236 27.1943C15.3442 27.3062 15.4738 27.3952 15.6171 27.456C15.7603 27.5168 15.9144 27.5481 16.07 27.5481C16.2256 27.5481 16.3797 27.5168 16.523 27.456C16.6663 27.3952 16.7958 27.3062 16.904 27.1943L28.541 15.2473C28.5982 15.193 28.6371 15.1222 28.6521 15.0448C28.6672 14.9673 28.6577 14.8871 28.625 14.8153C28.5983 14.7416 28.5491 14.6781 28.4843 14.634C28.4195 14.5898 28.3424 14.5672 28.264 14.5693H23.442C23.1275 14.5654 22.8275 14.4368 22.6078 14.2118C22.388 13.9868 22.2665 13.6838 22.27 13.3693V8.67835C22.27 8.52444 22.3003 8.37204 22.3592 8.22984C22.4181 8.08765 22.5045 7.95845 22.6133 7.84962C22.7221 7.74079 22.8513 7.65446 22.9935 7.59556C23.1357 7.53666 23.2881 7.50635 23.442 7.50635C23.5959 7.50635 23.7483 7.53666 23.8905 7.59556C24.0327 7.65446 24.1619 7.74079 24.2707 7.84962C24.3796 7.95845 24.4659 8.08765 24.5248 8.22984C24.5837 8.37204 24.614 8.52444 24.614 8.67835V12.1653H28.264C28.8098 12.1678 29.3424 12.334 29.7927 12.6424C30.243 12.9508 30.5905 13.3873 30.79 13.8953C30.9982 14.4063 31.0533 14.9668 30.9486 15.5086C30.8438 16.0503 30.5837 16.5498 30.2 16.9463Z" fill="white"/>
<path d="M9.23602 6.29518C9.47025 6.29637 9.69956 6.228 9.89489 6.09874C10.0902 5.96947 10.2428 5.78513 10.3332 5.56907C10.4237 5.35301 10.448 5.11497 10.403 4.88509C10.3581 4.65522 10.2459 4.44387 10.0807 4.27782C9.91545 4.11178 9.70467 3.99851 9.47503 3.95237C9.24539 3.90624 9.00722 3.92931 8.79071 4.01867C8.57419 4.10803 8.38908 4.25965 8.25882 4.45433C8.12856 4.649 8.05903 4.87795 8.05902 5.11218C8.05863 5.26714 8.08876 5.42066 8.1477 5.56398C8.20663 5.7073 8.29322 5.8376 8.40252 5.94745C8.51181 6.0573 8.64167 6.14455 8.78469 6.20422C8.9277 6.26388 9.08106 6.29479 9.23602 6.29518Z" fill="white"/>
<path d="M23.352 6.29518C23.5863 6.29657 23.8157 6.22836 24.0112 6.09922C24.2066 5.97008 24.3593 5.7858 24.45 5.56976C24.5406 5.35373 24.565 5.11565 24.5201 4.88571C24.4753 4.65577 24.3632 4.44432 24.198 4.27818C24.0329 4.11203 23.8221 3.99866 23.5924 3.95245C23.3627 3.90623 23.1245 3.92925 22.9079 4.01858C22.6914 4.1079 22.5062 4.25953 22.3759 4.45422C22.2456 4.64891 22.176 4.87791 22.176 5.11218C22.1752 5.42496 22.2987 5.72527 22.5192 5.94709C22.7397 6.16892 23.0392 6.29412 23.352 6.29518Z" fill="white"/>
<path d="M17.244 17.568H15.565C15.4947 17.5741 15.4238 17.5655 15.357 17.5429C15.2901 17.5203 15.2286 17.4841 15.1764 17.4366C15.1242 17.3891 15.0824 17.3313 15.0535 17.2668C15.0247 17.2023 15.0096 17.1326 15.009 17.062C15.013 16.7604 14.8975 16.4695 14.6876 16.2529C14.4777 16.0363 14.1906 15.9115 13.889 15.906C13.5867 15.9105 13.2986 16.0347 13.0879 16.2515C12.8771 16.4682 12.761 16.7597 12.765 17.062C12.7553 17.7919 13.033 18.4963 13.5381 19.0232C14.0433 19.55 14.7354 19.8571 15.465 19.878V20.517C15.4605 20.6675 15.4863 20.8174 15.5408 20.9577C15.5953 21.0981 15.6774 21.2261 15.7823 21.3341C15.8871 21.4421 16.0126 21.528 16.1513 21.5867C16.2899 21.6453 16.439 21.6756 16.5895 21.6756C16.7401 21.6756 16.8891 21.6453 17.0278 21.5867C17.1664 21.528 17.2919 21.4421 17.3968 21.3341C17.5016 21.2261 17.5838 21.0981 17.6382 20.9577C17.6927 20.8174 17.7185 20.6675 17.714 20.517V19.848C18.4697 19.7418 19.1608 19.3637 19.6578 18.7846C20.1548 18.2055 20.4236 17.4651 20.414 16.702V15.995C20.4171 15.5689 20.336 15.1464 20.1754 14.7517C20.0148 14.357 19.7778 13.9979 19.478 13.695C19.1865 13.3994 18.8389 13.1649 18.4557 13.0052C18.0724 12.8456 17.6612 12.7639 17.246 12.765H16.213C15.9627 12.7523 15.7272 12.6425 15.5565 12.459C15.3859 12.2754 15.2935 12.0326 15.299 11.782V11.365C15.2967 11.2446 15.3188 11.125 15.364 11.0134C15.4091 10.9018 15.4765 10.8005 15.5619 10.7156C15.6473 10.6307 15.7491 10.5641 15.861 10.5196C15.9729 10.4752 16.0926 10.4539 16.213 10.457H17.187C17.2599 10.4531 17.3328 10.4637 17.4016 10.4881C17.4704 10.5125 17.5337 10.5503 17.5878 10.5993C17.6419 10.6483 17.6857 10.7075 17.7169 10.7735C17.748 10.8396 17.7657 10.9111 17.769 10.984C17.7645 11.1345 17.7903 11.2844 17.8448 11.4247C17.8993 11.5651 17.9814 11.6931 18.0863 11.8011C18.1911 11.9091 18.3166 11.995 18.4553 12.0537C18.5939 12.1123 18.743 12.1426 18.8935 12.1426C19.0441 12.1426 19.1931 12.1123 19.3318 12.0537C19.4704 11.995 19.5959 11.9091 19.7008 11.8011C19.8056 11.6931 19.8878 11.5651 19.9422 11.4247C19.9967 11.2844 20.0225 11.1345 20.018 10.984C20.0178 10.3237 19.7876 9.68411 19.3669 9.17513C18.9463 8.66615 18.3615 8.31959 17.713 8.19502V7.45102C17.7175 7.30052 17.6917 7.15066 17.6372 7.01031C17.5828 6.86996 17.5006 6.74197 17.3958 6.63393C17.2909 6.5259 17.1654 6.44001 17.0268 6.38135C16.8881 6.3227 16.7391 6.29248 16.5885 6.29248C16.438 6.29248 16.2889 6.3227 16.1503 6.38135C16.0116 6.44001 15.8861 6.5259 15.7813 6.63393C15.6764 6.74197 15.5943 6.86996 15.5398 7.01031C15.4853 7.15066 15.4595 7.30052 15.464 7.45102V8.23402C14.9031 8.37031 14.3911 8.65974 13.985 9.07002C13.6859 9.37222 13.4494 9.73053 13.2891 10.1244C13.1288 10.5182 13.0479 10.9398 13.051 11.365V11.787C13.0333 12.6438 13.3564 13.4725 13.9492 14.0912C14.5421 14.71 15.3563 15.0681 16.213 15.087H17.243C17.3634 15.0852 17.483 15.1073 17.5948 15.1521C17.7066 15.1969 17.8083 15.2635 17.8941 15.348C17.9799 15.4325 18.0481 15.5332 18.0946 15.6443C18.1411 15.7554 18.165 15.8746 18.165 15.995V16.695C18.1651 16.8134 18.1409 16.9306 18.094 17.0393C18.0471 17.1481 17.9785 17.2461 17.8923 17.3273C17.8061 17.4085 17.7043 17.4712 17.5929 17.5116C17.4816 17.5519 17.3632 17.5691 17.245 17.562L17.244 17.568Z" fill="#4ADEB5"/>
<path d="M9.39301 2.5C9.64023 2.5 9.88191 2.42669 10.0875 2.28934C10.293 2.15199 10.4532 1.95676 10.5479 1.72835C10.6425 1.49995 10.6672 1.24861 10.619 1.00614C10.5708 0.763662 10.4517 0.540933 10.2769 0.366117C10.1021 0.191301 9.87934 0.0722505 9.63687 0.024019C9.39439 -0.0242126 9.14306 0.000541605 8.91465 0.0951511C8.68624 0.189761 8.49102 0.349976 8.35367 0.555538C8.21632 0.761099 8.14301 1.00277 8.14301 1.25C8.14301 1.58152 8.2747 1.89946 8.50912 2.13388C8.74354 2.3683 9.06148 2.5 9.39301 2.5Z" fill="white"/>
<path d="M23.321 2.5C23.5683 2.5 23.8099 2.42669 24.0155 2.28934C24.2211 2.15199 24.3813 1.95676 24.4759 1.72835C24.5705 1.49995 24.5953 1.24861 24.547 1.00614C24.4988 0.763662 24.3797 0.540933 24.2049 0.366117C24.0301 0.191301 23.8074 0.0722505 23.5649 0.024019C23.3224 -0.0242126 23.0711 0.000541605 22.8427 0.0951511C22.6143 0.189761 22.4191 0.349976 22.2817 0.555538C22.1444 0.761099 22.071 1.00277 22.071 1.25C22.071 1.58152 22.2027 1.89946 22.4372 2.13388C22.6716 2.3683 22.9895 2.5 23.321 2.5Z" fill="white"/>
</svg>
