<svg width="30" height="31" viewBox="0 0 30 31" fill="none" xmlns="http://www.w3.org/2000/svg">
<path d="M28.562 30.1382H23.917C23.6085 30.1372 23.3131 30.0138 23.0955 29.7953C22.8778 29.5767 22.7557 29.2807 22.756 28.9722V26.0562H6.966V28.9722C6.96627 29.2807 6.84419 29.5767 6.62655 29.7953C6.4089 30.0138 6.11346 30.1372 5.805 30.1382H1.161C0.852544 30.1372 0.557097 30.0138 0.339453 29.7953C0.121809 29.5767 -0.000265418 29.2807 1.17092e-06 28.9722V19.4652C-0.00095638 17.8867 0.585413 16.3643 1.645 15.1942C1.657 15.1632 1.672 15.1262 1.69 15.0942L4.99 8.52224C5.52906 7.44616 6.35728 6.54156 7.38176 5.90991C8.40624 5.27827 9.58645 4.94457 10.79 4.94624H14.69C14.9994 4.94624 15.2961 5.06914 15.5148 5.2879C15.7336 5.50666 15.8565 5.80336 15.8565 6.11274C15.8565 6.42211 15.7336 6.71882 15.5148 6.93758C15.2961 7.15634 14.9994 7.27924 14.69 7.27924H10.79C10.0163 7.2778 9.25745 7.49207 8.59874 7.898C7.94004 8.30393 7.40753 8.88544 7.061 9.57724L5.239 13.2072C5.5986 13.1445 5.96297 13.1131 6.328 13.1132H16.138C16.4474 13.1132 16.7441 13.2361 16.9628 13.4549C17.1816 13.6737 17.3045 13.9704 17.3045 14.2797C17.3045 14.5891 17.1816 14.8858 16.9628 15.1046C16.7441 15.3233 16.4474 15.4462 16.138 15.4462H6.328C5.26348 15.4497 4.24382 15.8753 3.49277 16.6297C2.74173 17.3841 2.32067 18.4057 2.322 19.4702V23.7282H5.963L9.687 19.9772C9.79432 19.8686 9.92218 19.7825 10.0631 19.7237C10.2041 19.665 10.3553 19.6349 10.508 19.6352H19.215C19.3677 19.6349 19.5189 19.665 19.6599 19.7237C19.8008 19.7825 19.9287 19.8686 20.036 19.9772L23.759 23.7182H27.4V19.4652C27.4004 18.9996 27.3202 18.5375 27.163 18.0992C27.0589 17.8082 27.0741 17.4879 27.2052 17.208C27.3363 16.9282 27.5728 16.7115 27.863 16.6052C28.0066 16.5531 28.159 16.5299 28.3116 16.5369C28.4642 16.5439 28.6138 16.581 28.752 16.6461C28.8902 16.7111 29.0142 16.8029 29.1168 16.916C29.2194 17.0291 29.2987 17.1614 29.35 17.3052C29.5985 17.9975 29.725 18.7277 29.724 19.4632V28.9702C29.7244 29.1232 29.6947 29.2748 29.6365 29.4163C29.5783 29.5578 29.4928 29.6864 29.3849 29.7949C29.277 29.9034 29.1488 29.9895 29.0076 30.0484C28.8664 30.1073 28.715 30.1378 28.562 30.1382ZM25.079 26.0562V27.8062H27.4V26.0562H25.079ZM2.322 26.0562V27.8062H4.644V26.0562H2.322ZM10.988 21.9772L9.247 23.7272H20.476L18.734 21.9772H10.988ZM23.917 20.8072C23.6859 20.8084 23.4597 20.741 23.267 20.6135C23.0743 20.486 22.9238 20.3041 22.8346 20.091C22.7453 19.8779 22.7213 19.643 22.7657 19.4163C22.81 19.1895 22.9207 18.981 23.0837 18.8172C23.2467 18.6534 23.4546 18.5416 23.6811 18.4961C23.9077 18.4506 24.1426 18.4734 24.3562 18.5615C24.5698 18.6497 24.7524 18.7992 24.8809 18.9913C25.0094 19.1833 25.078 19.4092 25.078 19.6402C25.0785 19.9489 24.9566 20.2451 24.7389 20.4639C24.5212 20.6827 24.2256 20.8062 23.917 20.8072ZM5.805 20.8072C5.57394 20.8084 5.34772 20.741 5.15502 20.6135C4.96232 20.486 4.81181 20.3041 4.72257 20.091C4.63332 19.8779 4.60935 19.643 4.6537 19.4163C4.69805 19.1895 4.80872 18.981 4.97168 18.8172C5.13465 18.6534 5.34258 18.5416 5.56911 18.4961C5.79565 18.4506 6.0306 18.4734 6.2442 18.5615C6.45779 18.6497 6.6404 18.7992 6.7689 18.9913C6.8974 19.1833 6.966 19.4092 6.966 19.6402C6.96653 19.9489 6.84458 20.2451 6.6269 20.4639C6.40923 20.6827 6.11363 20.8062 5.805 20.8072ZM23.685 14.9162C22.0774 14.9078 20.5388 14.2619 19.4068 13.1204C18.2748 11.9788 17.6419 10.4349 17.647 8.82724C17.647 5.83324 19.693 2.95724 23.565 0.509237L23.645 0.459237C23.8204 0.347567 24.0225 0.285117 24.2303 0.278432C24.4381 0.271746 24.6438 0.321071 24.826 0.421237C25.0081 0.522575 25.1597 0.670783 25.2652 0.850488C25.3707 1.03019 25.4263 1.23485 25.426 1.44324C25.426 2.48824 26.071 3.13424 27.126 4.10224C28.277 5.16024 29.709 6.47724 29.726 8.82024C29.7326 9.61775 29.5814 10.4087 29.2812 11.1476C28.981 11.8865 28.5377 12.5587 27.9767 13.1256C27.4157 13.6925 26.7482 14.143 26.0125 14.4509C25.2769 14.7589 24.4875 14.9184 23.69 14.9202L23.685 14.9162ZM23.393 10.2022C23.0705 10.6304 22.8704 11.1382 22.814 11.6712C22.8083 11.7891 22.8267 11.9069 22.8679 12.0175C22.9091 12.1281 22.9724 12.2292 23.0538 12.3146C23.1353 12.4001 23.2332 12.4681 23.3417 12.5146C23.4502 12.561 23.567 12.585 23.685 12.585C23.803 12.585 23.9198 12.561 24.0283 12.5146C24.1368 12.4681 24.2348 12.4001 24.3162 12.3146C24.3976 12.2292 24.4609 12.1281 24.5021 12.0175C24.5433 11.9069 24.5617 11.7891 24.556 11.6712C24.556 11.4192 24.431 11.2622 23.97 10.8122C23.7663 10.6196 23.5737 10.4156 23.393 10.2012V10.2022ZM23.751 6.86824C23.9167 6.86657 24.0807 6.90068 24.232 6.96824C24.4349 7.06193 24.6067 7.21171 24.7272 7.39988C24.8477 7.58806 24.9118 7.80679 24.912 8.03024C24.912 8.43824 25.087 8.64524 25.587 9.13024C26.147 9.59759 26.5631 10.2141 26.787 10.9082C27.1962 10.2922 27.4115 9.56775 27.405 8.82824C27.397 7.56924 26.699 6.86424 25.561 5.81724C24.7291 5.13906 24.0395 4.30302 23.532 3.35724C21.2 5.12424 19.969 7.01324 19.969 8.82724C19.9683 9.55744 20.1799 10.2721 20.578 10.8842C21.014 9.43875 21.8494 8.1458 22.988 7.15424C23.1991 6.96925 23.4703 6.86726 23.751 6.86724V6.86824Z" fill="white"/>
<path d="M23.802 14.9994C24.6147 15.001 25.4195 14.8392 26.1685 14.5236C26.9175 14.208 27.5954 13.7451 28.162 13.1624C28.7347 12.5808 29.1869 11.8919 29.4927 11.1351C29.7985 10.3783 29.9519 9.5686 29.944 8.75241C29.927 6.35341 28.47 4.99941 27.3 3.91841C26.23 2.92741 25.575 2.26541 25.575 1.19941C25.5759 0.985317 25.5196 0.774868 25.4118 0.589888C25.304 0.404908 25.1487 0.252133 24.962 0.147407C24.7772 0.0446356 24.5681 -0.00610583 24.3567 0.000585816C24.1454 0.00727746 23.9399 0.0711517 23.762 0.185407L23.68 0.237407C19.743 2.74441 17.662 5.69141 17.662 8.76041C17.6516 10.4011 18.292 11.9791 19.4429 13.1486C20.5938 14.318 22.1613 14.9836 23.802 14.9994Z" fill="#4ADEB5"/>
<path d="M23.762 12.6226C23.5185 12.616 23.2875 12.5132 23.1197 12.3366C22.952 12.16 22.8611 11.9241 22.867 11.6806C22.9215 11.1297 23.1275 10.6047 23.462 10.1636C23.6475 10.3841 23.8451 10.594 24.054 10.7926C24.528 11.2576 24.654 11.4206 24.654 11.6806C24.6599 11.9236 24.5694 12.1591 24.4023 12.3356C24.2351 12.5121 24.0049 12.6152 23.762 12.6226Z" fill="white"/>
<path d="M23.641 3.19629C24.1574 4.16077 24.8591 5.01376 25.706 5.70629C26.864 6.77429 27.575 7.49629 27.583 8.77829C27.5888 9.53116 27.3698 10.2686 26.954 10.8963C26.7264 10.1912 26.305 9.56427 25.738 9.08729C25.229 8.58729 25.05 8.37729 25.05 7.96129C25.0503 7.73349 24.9853 7.51039 24.8626 7.31844C24.74 7.12648 24.5649 6.97373 24.358 6.87829C24.1518 6.78371 23.9226 6.75086 23.6982 6.78369C23.4737 6.81651 23.2635 6.91362 23.093 7.06329C21.931 8.07408 21.0802 9.3944 20.64 10.8703C20.2345 10.2454 20.0191 9.51623 20.02 8.77129C20.02 6.92329 21.294 4.97629 23.641 3.19629Z" fill="white"/>
</svg>
