<?xml version="1.0" encoding="UTF-8"?>
<svg width="40px" height="40px" viewBox="0 0 40 40" version="1.1" xmlns="http://www.w3.org/2000/svg" xmlns:xlink="http://www.w3.org/1999/xlink">
    <!-- Generator: Sketch 57.1 (83088) - https://sketch.com -->
    <title>bars-graphic</title>
    <desc>Created with Sketch.</desc>
    <g id="Page-1" stroke="none" stroke-width="1" fill="none" fill-rule="evenodd">
        <g id="Desktop-HD" transform="translate(-720.000000, -2871.000000)" fill="#FFFFFF" fill-rule="nonzero">
            <g id="Group-13" transform="translate(136.000000, 2629.000000)">
                <g id="bars-graphic" transform="translate(584.000000, 242.000000)">
                    <path d="M36.8753052,31.4038086 L36.8753052,3.90594484 C36.8753052,3.4753418 36.5246582,3.12469484 36.0940552,3.12469484 L32.6568603,3.12469484 C32.2259522,3.12469484 31.8756103,3.4753418 31.8756103,3.90594484 L31.8756103,36.8722534 L38.4375,36.8722534 C39.3005371,36.8722534 40,37.5717163 40,38.4344483 C40,39.2974853 39.3005371,39.9969483 38.4375,39.9969483 L1.56555172,39.9969483 C0.702514687,39.9969483 0.00305175781,39.2974853 0.00305175781,38.4344483 L0.00305175781,27.2634888 C0.00305175781,25.1098633 1.75537109,23.3575439 3.90899656,23.3575439 L7.34619141,23.3575439 C9.50012203,23.3575439 11.2521362,25.1098633 11.2521362,27.2634888 L11.2521362,31.4038086 C11.2521362,32.2668457 10.5526734,32.9663086 9.68994141,32.9663086 C8.8269043,32.9663086 8.12744141,32.2668457 8.12744141,31.4038086 L8.12744141,27.2634888 C8.12744141,26.8328858 7.77709961,26.4822388 7.34619141,26.4822388 L3.90899656,26.4822388 C3.47839359,26.4822388 3.12774656,26.8328858 3.12774656,27.2634888 L3.12774656,36.8722534 L14.3771362,36.8722534 L14.3771362,16.4050293 C14.3771362,14.2510986 16.1291504,12.4990845 18.2830811,12.4990845 L21.7202759,12.4990845 C23.8739014,12.4990845 25.6262207,14.2510986 25.6262207,16.4050293 L25.6262207,31.4038086 C25.6262207,32.2668457 24.9267578,32.9663086 24.0637207,32.9663086 C23.2009887,32.9663086 22.5012207,32.2668457 22.5012207,31.4038086 L22.5012207,16.4050293 C22.5012207,15.9741211 22.1508789,15.6237793 21.7202759,15.6237793 L18.2830811,15.6237793 C17.8521728,15.6237793 17.5018311,15.9741211 17.5018311,16.4050293 L17.5018311,36.8722534 L28.7509155,36.8722534 L28.7509155,3.90594484 C28.7509155,1.75231938 30.5032348,2.84217094e-14 32.6568603,2.84217094e-14 L36.0940552,2.84217094e-14 C38.2476806,2.84217094e-14 40,1.75231938 40,3.90594484 L40,31.4038086 C40,32.2668457 39.3005371,32.9663086 38.4375,32.9663086 C37.574768,32.9663086 36.8753052,32.2668457 36.8753052,31.4038086 L36.8753052,31.4038086 Z M6.22406008,13.9831543 L3.89739992,13.9831543 C3.51348875,13.9831543 3.12469484,13.7417602 3.12469484,13.2803345 C3.12469484,12.4172973 2.42523195,11.7178345 1.5625,11.7178345 C0.699462891,11.7178345 -2.84217094e-14,12.4172973 -2.84217094e-14,13.2803345 C-2.84217094e-14,15.378418 1.6363525,17.0315552 3.7512207,17.1044922 L3.7512207,17.9672241 C3.7512207,18.8302612 4.45068359,19.5297241 5.3137207,19.5297241 C6.17645266,19.5297241 6.87591555,18.8302612 6.87591555,17.9672241 L6.87591555,17.062378 C9.02526859,16.762085 10.6274414,14.9945069 10.6274414,12.791748 L10.6274414,12.6550293 C10.6274414,10.1998902 8.65203859,8.20251469 6.22406008,8.20251469 L4.79248047,8.20251469 C4.08050539,8.20251469 3.52264406,7.65899656 3.52264406,6.96472172 L3.52264406,6.85150148 C3.52264406,6.15203859 4.06860352,5.62469484 4.79248047,5.62469484 L6.14624023,5.62469484 C6.54418945,5.62469484 6.95556641,5.89080812 6.95556641,6.33666992 C6.95556641,7.19970703 7.65533445,7.89916992 8.51806641,7.89916992 C9.38110352,7.89916992 10.0805664,7.19970703 10.0805664,6.33666992 C10.0805664,4.46411133 8.69781492,2.90191648 6.87591555,2.56713867 L6.87591555,1.5625 C6.87591555,0.699462891 6.17645266,0 5.3137207,0 C4.45068359,0 3.7512207,0.699462891 3.7512207,1.5625 L3.7512207,2.62084961 C2.97790531,2.80334469 2.26959227,3.18878172 1.69525148,3.75091555 C0.858459453,4.56970219 0.397949219,5.67077641 0.397949219,6.85150148 L0.397949219,6.96472172 C0.397949219,8.14483641 0.857543906,9.24682617 1.69219969,10.0680542 C2.51770016,10.880127 3.61877437,11.3272095 4.79248047,11.3272095 L6.22406008,11.3272095 C6.91711422,11.3272095 7.50244141,11.9354248 7.50244141,12.6550293 L7.50244141,12.791748 C7.50244141,13.4710694 6.95281984,13.9831543 6.22406008,13.9831543 Z" id="Shape"></path>
                </g>
            </g>
        </g>
    </g>
</svg>