<?xml version="1.0" encoding="UTF-8"?>
<svg width="40px" height="42px" viewBox="0 0 40 42" version="1.1" xmlns="http://www.w3.org/2000/svg" xmlns:xlink="http://www.w3.org/1999/xlink">
    <!-- Generator: Sketch 57.1 (83088) - https://sketch.com -->
    <title>node</title>
    <desc>Created with Sketch.</desc>
    <g id="Page-1" stroke="none" stroke-width="1" fill="none" fill-rule="evenodd">
        <g id="Desktop-HD" transform="translate(-721.000000, -2768.000000)" fill="#FFFFFF" fill-rule="nonzero">
            <g id="Group-13" transform="translate(136.000000, 2629.000000)">
                <g id="node" transform="translate(585.000000, 139.000000)">
                    <path d="M35.9349593,23.5368805 L35.9349593,17.0625 C35.9349593,16.156311 35.207063,15.421875 34.3089431,15.421875 C32.9639863,15.421875 31.8699187,14.3179779 31.8699187,12.9609375 C31.8699187,11.6038971 32.9639863,10.5 34.3089431,10.5 C35.6538999,10.5 36.7479675,11.6038971 36.7479675,12.9609375 C36.7479675,13.8671265 37.4758638,14.6015625 38.3739837,14.6015625 C39.2721037,14.6015625 40,13.8671265 40,12.9609375 C40,9.79472353 37.4469639,7.21875 34.3089431,7.21875 C32.646405,7.21875 31.1480564,7.9419708 30.1063898,9.0932922 L25.6234121,6.62658691 C25.6678735,6.3381958 25.6910569,6.04307558 25.6910569,5.7421875 C25.6910569,2.57597353 23.1380208,0 20,0 C16.8619792,0 14.3089431,2.57597353 14.3089431,5.7421875 C14.3089431,6.04179384 14.3318089,6.33595274 14.3759528,6.62306211 L9.8815422,9.08047481 C8.84051065,7.93716427 7.34756098,7.21875 5.69105691,7.21875 C2.5530361,7.21875 0,9.79472353 0,12.9609375 C0,15.4968566 1.63808439,17.65242 3.90243902,18.4108887 L3.90243902,23.5891113 C1.63808439,24.34758 0,26.5031434 0,29.0390625 C0,32.2052765 2.5530361,34.78125 5.69105691,34.78125 C7.34533789,34.78125 8.83669967,34.0647583 9.87741366,32.9240112 L14.3718242,35.4073791 C14.3308562,35.6848755 14.3089431,35.9687805 14.3089431,36.2578125 C14.3089431,39.4240265 16.8619792,42 20,42 C20.8981199,42 21.6260163,41.265564 21.6260163,40.359375 C21.6260163,39.453186 20.8981199,38.71875 20,38.71875 C18.6550432,38.71875 17.5609756,37.6148529 17.5609756,36.2578125 C17.5609756,34.9007721 18.6550432,33.796875 20,33.796875 C21.3449568,33.796875 22.4390244,34.9007721 22.4390244,36.2578125 C22.4390244,37.1640015 23.1669207,37.8984375 24.0650407,37.8984375 C24.9631606,37.8984375 25.6910569,37.1640015 25.6910569,36.2578125 C25.6910569,35.9530792 25.6669207,35.6537934 25.621189,35.361557 L30.0692327,32.8644104 C31.1118521,34.0397644 32.6260798,34.78125 34.3089431,34.78125 C35.207063,34.78125 35.9349593,34.046814 35.9349593,33.140625 C35.9349593,32.234436 35.207063,31.5 34.3089431,31.5 C32.9639863,31.5 31.8699187,30.3961029 31.8699187,29.0390625 C31.8699187,27.6820221 32.9639863,26.578125 34.3089431,26.578125 C35.6538999,26.578125 36.7479675,27.6820221 36.7479675,29.0390625 C36.7479675,29.9452515 37.4758638,30.6796875 38.3739837,30.6796875 C39.2721037,30.6796875 40,29.9452515 40,29.0390625 C40,26.4429016 38.2831554,24.2447205 35.9349593,23.5368805 L35.9349593,23.5368805 Z M28.6899772,12.0512237 C28.6429751,12.3476258 28.6178862,12.6513977 28.6178862,12.9609375 C28.6178862,13.440628 28.6772739,13.9065399 28.7877922,14.3522644 L21.6260163,18.1891479 L21.6260163,11.2443695 C22.6359248,10.9399566 23.529281,10.3606109 24.2190676,9.59156797 L28.6899772,12.0512237 Z M9.43565805,24.7205658 C8.7877922,24.1476288 8.01067073,23.7204895 7.15447154,23.4904175 L7.15447154,18.5099029 C8.06148374,18.2660522 8.87989073,17.8014221 9.54966976,17.1768951 L16.532965,20.9179688 L9.43565805,24.7205658 Z M20,3.28125 C21.3449568,3.28125 22.4390244,4.38514707 22.4390244,5.7421875 C22.4390244,7.09922793 21.3449568,8.203125 20,8.203125 C18.6550432,8.203125 17.5609756,7.09922793 17.5609756,5.7421875 C17.5609756,4.38514707 18.6550432,3.28125 20,3.28125 L20,3.28125 Z M15.7783918,9.58836367 C16.4684959,10.3590088 17.3628049,10.9393158 18.3739837,11.2443695 L18.3739837,18.1891479 L11.2122078,14.3522644 C11.3227261,13.9065399 11.3821138,13.440628 11.3821138,12.9609375 C11.3821138,12.6449891 11.3557546,12.3354492 11.3068471,12.0332794 L15.7783918,9.58836367 Z M5.69105691,10.5 C7.03601374,10.5 8.1300813,11.6038971 8.1300813,12.9609375 C8.1300813,14.3179779 7.03601374,15.421875 5.69105691,15.421875 C4.34610008,15.421875 3.25203252,14.3179779 3.25203252,12.9609375 C3.25203252,11.6038971 4.34610008,10.5 5.69105691,10.5 Z M5.69105691,31.5 C4.34610008,31.5 3.25203252,30.3961029 3.25203252,29.0390625 C3.25203252,27.6820221 4.34610008,26.578125 5.69105691,26.578125 C7.03601374,26.578125 8.1300813,27.6820221 8.1300813,29.0390625 C8.1300813,30.3961029 7.03601374,31.5 5.69105691,31.5 Z M15.759972,32.4331055 L11.3058943,29.972168 C11.355437,29.668396 11.3821138,29.3569336 11.3821138,29.0390625 C11.3821138,28.5074615 11.3087525,27.9931641 11.174098,27.5041809 L18.3739837,23.6467896 L18.3739837,30.7556305 C17.353595,31.0632477 16.4526169,31.6518859 15.759972,32.4331055 L15.759972,32.4331055 Z M24.2104928,32.3984985 C23.5219766,31.6342621 22.6314787,31.0587616 21.6260163,30.7556305 L21.6260163,23.6467896 L28.825902,27.5041809 C28.6912475,27.9931641 28.6178862,28.5074615 28.6178862,29.0390625 C28.6178862,29.327774 28.6397993,29.6113586 28.6804497,29.8885346 L24.2104928,32.3984985 Z M30.564342,24.7205658 L23.467035,20.9179688 L30.4503302,17.1765747 C31.0797764,17.7639313 31.8407012,18.2090149 32.6829268,18.4631195 L32.6829268,23.5368805 C31.890879,23.7756043 31.1712398,24.1841583 30.564342,24.7205658 Z" id="Shape"></path>
                </g>
            </g>
        </g>
    </g>
</svg>