<?xml version="1.0" encoding="UTF-8"?>
<svg width="42px" height="34px" viewBox="0 0 42 34" version="1.1" xmlns="http://www.w3.org/2000/svg" xmlns:xlink="http://www.w3.org/1999/xlink">
    <!-- Generator: Sketch 57.1 (83088) - https://sketch.com -->
    <title>electric-car</title>
    <desc>Created with Sketch.</desc>
    <g id="Page-1" stroke="none" stroke-width="1" fill="none" fill-rule="evenodd">
        <g id="Desktop-HD" transform="translate(-721.000000, -3002.000000)" fill="#FFFFFF" fill-rule="nonzero">
            <g id="Group-13" transform="translate(136.000000, 2629.000000)">
                <g id="electric-car" transform="translate(585.000000, 373.000000)">
                    <path d="M41.7032963,24.7151973 L33.9585613,33.5754754 C33.8182058,33.7152566 33.6054168,33.7960574 33.403948,33.7968841 C33.1171667,33.7980262 32.8933034,33.6447918 32.8945339,33.3867214 C32.89478,33.3246238 32.910448,33.2558816 32.9448191,33.180905 L35.1494091,27.0703147 L31.8536393,27.0703147 C30.5842876,27.0703147 29.7825141,25.7242638 30.4001274,24.6230762 L34.1803738,17.8828139 L40.0035267,17.8828139 L37.0014288,22.7226581 L40.8008705,22.7226581 C41.8328237,22.7226581 42.3757065,23.9378691 41.7032963,24.7151973 L41.7032963,24.7151973 Z M27.8906272,21.8203143 C27.8906272,22.7264315 27.1561194,23.4609394 26.2500021,23.4609394 L15.7139075,23.4609394 C15.0366575,25.370463 13.2130206,26.7421897 11.0742196,26.7421897 C8.93541869,26.7421897 7.11186385,25.370463 6.43453177,23.4609394 L4.9218754,23.4609394 C2.2079533,23.4609394 0,21.2529861 0,18.539064 L0,13.7723917 C0,12.1128174 0.340429715,10.5027079 1.01193758,8.98578588 L3.5868167,2.37488691 C4.16119955,0.815636784 6.0910669,0 7.71093812,0 L20.0830563,0 C21.1104158,0 22.1669783,0.372339874 23.0580839,1.04844149 C23.0996737,1.08002352 32.1282799,9.3957781 32.1282799,9.3957781 L37.6499679,11.4489384 C38.4993195,11.7647588 38.9317063,12.7091846 38.615968,13.5585362 C38.3001476,14.4078058 37.3556397,14.8402746 36.5064522,14.5244543 L31.8480612,12.7077901 L3.34753152,12.7077901 C3.30380886,13.0588839 3.28125026,13.4139972 3.28125026,13.7723917 L3.28125026,18.539064 C3.28125026,19.4437047 4.0172347,20.1796891 4.9218754,20.1796891 L6.43453177,20.1796891 C7.11178182,18.2701655 8.93541869,16.8984389 11.0742196,16.8984389 C13.2130206,16.8984389 15.0365754,18.2701655 15.7139075,20.1796891 L26.2500021,20.1796891 C27.1561194,20.1796891 27.8906272,20.914197 27.8906272,21.8203143 Z M14.6015637,9.42653982 L27.3193616,9.42653982 L21.0200173,3.62217217 C20.7113337,3.40183621 20.3809118,3.28125026 20.0830563,3.28125026 L14.6015637,3.28125026 L14.6015637,9.42653982 Z M4.36160191,9.42653982 L11.3203134,9.42653982 L11.3203134,3.28125026 L7.71093812,3.28125026 C7.23359824,3.28125026 6.77914508,3.47615653 6.63230913,3.59666045 L4.36160191,9.42653982 Z M12.7148448,21.8203143 C12.7148448,20.9156736 11.9788603,20.1796891 11.0742196,20.1796891 C10.1695789,20.1796891 9.43359451,20.9156736 9.43359451,21.8203143 C9.43359451,22.724955 10.1695789,23.4609394 11.0742196,23.4609394 C11.9788603,23.4609394 12.7148448,22.724955 12.7148448,21.8203143 Z" id="Shape"></path>
                </g>
            </g>
        </g>
    </g>
</svg>