<?xml version="1.0" encoding="UTF-8"?>
<svg width="40px" height="41px" viewBox="0 0 40 41" version="1.1" xmlns="http://www.w3.org/2000/svg" xmlns:xlink="http://www.w3.org/1999/xlink">
    <!-- Generator: Sketch 57.1 (83088) - https://sketch.com -->
    <title>team</title>
    <desc>Created with Sketch.</desc>
    <g id="Page-1" stroke="none" stroke-width="1" fill="none" fill-rule="evenodd">
        <g id="Desktop-HD" transform="translate(-722.000000, -3104.000000)" fill="#FFFFFF" fill-rule="nonzero">
            <g id="Group-13" transform="translate(136.000000, 2629.000000)">
                <g id="team" transform="translate(586.000000, 475.000000)">
                    <path d="M8.59375,22.1481323 L31.4059448,22.1481323 C34.8522949,22.1481323 37.6559448,19.3444824 37.6559448,15.8981323 L37.6559448,1.6015625 C37.6559448,0.738525391 36.956482,0.0390625 36.0934448,0.0390625 L3.90625,0.0390625 C3.04351805,0.0390625 2.34405516,0.738525391 2.34405516,1.6015625 L2.34405516,15.8981323 C2.34405516,19.3444824 5.14770508,22.1481323 8.59375,22.1481323 Z M5.46875,3.1640625 L34.5309448,3.1640625 L34.5309448,15.8981323 C34.5309448,17.62146 33.1292725,19.0231323 31.4059448,19.0231323 L8.59375,19.0231323 C6.8707275,19.0231323 5.46875,17.62146 5.46875,15.8981323 L5.46875,3.1640625 Z M26.640625,14.3356323 L26.640625,7.8515625 C26.640625,6.98852539 27.3400879,6.2890625 28.203125,6.2890625 C29.065857,6.2890625 29.7653198,6.98852539 29.7653198,7.8515625 L29.7653198,14.3356323 C29.7653198,15.1986695 29.065857,15.8981323 28.203125,15.8981323 C27.3400879,15.8981323 26.640625,15.1986695 26.640625,14.3356323 Z M21.171875,14.3356323 L21.171875,10.9762573 C21.171875,10.1135254 21.8713379,9.4140625 22.734375,9.4140625 C23.597107,9.4140625 24.296875,10.1135254 24.296875,10.9762573 L24.296875,14.3356323 C24.296875,15.1986695 23.597107,15.8981323 22.734375,15.8981323 C21.8713379,15.8981323 21.171875,15.1986695 21.171875,14.3356323 Z M15.703125,14.3356323 L15.703125,9.4140625 C15.703125,8.55102539 16.4025879,7.8515625 17.265625,7.8515625 C18.1286621,7.8515625 18.828125,8.55102539 18.828125,9.4140625 L18.828125,14.3356323 C18.828125,15.1986695 18.1286621,15.8981323 17.265625,15.8981323 C16.4025879,15.8981323 15.703125,15.1986695 15.703125,14.3356323 Z M10.234375,14.3356323 L10.234375,7.8515625 C10.234375,6.98852539 10.9338379,6.2890625 11.796875,6.2890625 C12.6599121,6.2890625 13.359375,6.98852539 13.359375,7.8515625 L13.359375,14.3356323 C13.359375,15.1986695 12.6599121,15.8981323 11.796875,15.8981323 C10.9338379,15.8981323 10.234375,15.1986695 10.234375,14.3356323 Z M39.9447632,36.90979 C39.7692871,36.0650634 38.9419555,35.5221558 38.097229,35.697937 C37.4676514,35.8285523 37.0059204,36.3214111 36.8838501,36.9134522 L28.1396484,36.9134522 C28.782959,35.1605225 30.4733277,33.9450073 32.3806763,33.9450073 L32.4624634,33.9450073 C32.4765015,33.9450073 32.4902344,33.9431763 32.5039673,33.9428711 C35.0506592,33.8986206 37.1090698,31.8145752 37.1090698,29.2575073 C37.1090698,26.6726684 35.0064087,24.5700073 32.4215698,24.5700073 C29.8370361,24.5700073 27.734375,26.6726684 27.734375,29.2575073 C27.734375,30.2243042 28.0285645,31.1236572 28.5324097,31.8707275 C27.626648,32.4020386 26.8338013,33.1149292 26.2109375,33.9651489 C25.5877686,33.1149292 24.7949219,32.4023438 23.8894653,31.8707275 C24.3930054,31.1236572 24.6875,30.2243042 24.6875,29.2575073 C24.6875,26.6726684 22.5845337,24.5700073 20,24.5700073 C17.4151611,24.5700073 15.3125,26.6726684 15.3125,29.2575073 C15.3125,30.2243042 15.6069946,31.1236572 16.1105347,31.8707275 C15.204773,32.4020386 14.4122314,33.1149292 13.7890625,33.9651489 C13.1658936,33.1149292 12.373352,32.4023438 11.4675903,31.8707275 C11.9714355,31.1236572 12.265625,30.2243042 12.265625,29.2575073 C12.265625,26.6726684 10.1629639,24.5700073 7.578125,24.5700073 C4.99359133,24.5700073 2.890625,26.6726684 2.890625,29.2575073 C2.890625,30.2243042 3.18511961,31.1236572 3.68865969,31.8707275 C1.86889648,32.9385376 0.50567625,34.7409058 0.0552367969,36.90979 C-0.104980469,37.6809692 0.0875854688,38.4729004 0.58380125,39.0829468 C1.07818602,39.6902466 1.81030273,40.0384522 2.59277344,40.0384522 L37.4072266,40.0384522 C38.1896973,40.0384522 38.9221191,39.6902466 39.4161987,39.0829468 C39.9124145,38.4729004 40.1049805,37.6809692 39.9447632,36.90979 L39.9447632,36.90979 Z M19.9591064,33.9450073 L20.0408936,33.9450073 C21.9482422,33.9450073 23.6386109,35.1605225 24.2819214,36.9134522 L15.7177734,36.9134522 C16.361084,35.1605225 18.0517578,33.9450073 19.9591064,33.9450073 L19.9591064,33.9450073 Z M32.4215698,27.6950073 C33.2830811,27.6950073 33.9840698,28.3959961 33.9840698,29.2575073 C33.9840698,30.1190186 33.2830811,30.8200073 32.4215698,30.8200073 C31.5600586,30.8200073 30.8590698,30.1190186 30.8590698,29.2575073 C30.8590698,28.3959961 31.5600586,27.6950073 32.4215698,27.6950073 Z M20,27.6950073 C20.8615113,27.6950073 21.5625,28.3959961 21.5625,29.2575073 C21.5625,30.1190186 20.8615113,30.8200073 20,30.8200073 C19.1384888,30.8200073 18.4375,30.1190186 18.4375,29.2575073 C18.4375,28.3959961 19.1384888,27.6950073 20,27.6950073 Z M7.578125,27.6950073 C8.43963625,27.6950073 9.140625,28.3959961 9.140625,29.2575073 C9.140625,30.1190186 8.43963625,30.8200073 7.578125,30.8200073 C6.71661375,30.8200073 6.015625,30.1190186 6.015625,29.2575073 C6.015625,28.3959961 6.71661375,27.6950073 7.578125,27.6950073 Z M3.29528813,36.9134522 C3.93829344,35.1605225 5.62988281,33.9450073 7.53723141,33.9450073 L7.61901859,33.9450073 C9.52667234,33.9450073 11.2179566,35.1605225 11.8612671,36.9134522 L3.29528813,36.9134522 Z" id="Shape"></path>
                </g>
            </g>
        </g>
    </g>
</svg>