<?xml version="1.0" encoding="UTF-8" standalone="no"?><!DOCTYPE svg PUBLIC "-//W3C//DTD SVG 1.1//EN" "http://www.w3.org/Graphics/SVG/1.1/DTD/svg11.dtd"><svg width="100%" height="100%" viewBox="0 0 1019 138" version="1.1" xmlns="http://www.w3.org/2000/svg" xmlns:xlink="http://www.w3.org/1999/xlink" xml:space="preserve" xmlns:serif="http://www.serif.com/" style="fill-rule:evenodd;clip-rule:evenodd;stroke-linejoin:round;stroke-miterlimit:2;"><g><path d="M0.511,2.176l0,134.105l86.025,0l0,-24.833l-58.722,0l0,-28.948l49.79,0l0,-24.644l-49.79,0l0,-30.847l56.823,0l0,-24.833l-84.126,0Z" style="fill:#fff;fill-rule:nonzero;"/><path d="M120.615,2.176l0,134.105l78.042,0l0,-24.833l-50.55,0l0,-109.272l-27.492,0Z" style="fill:#fff;fill-rule:nonzero;"/><path d="M555.519,15.94c-7.685,-9.005 -19.067,-13.764 -32.92,-13.764l-54.795,0l0,134.105l27.492,0l0,-46.559l27.303,0c13.869,0 25.247,-4.692 32.912,-13.568c6.639,-7.684 10.292,-18.342 10.292,-30.014c0,-11.704 -3.653,-22.427 -10.284,-30.2m-17.208,30.2c0,12.883 -8.735,18.749 -16.851,18.749l-26.164,0l0,-37.881l26.925,0c11.805,0 16.09,11.443 16.09,19.132" style="fill:#fff;fill-rule:nonzero;"/><path d="M300.353,1.523c0.169,1.605 0.261,3.231 0.261,4.88c0,25.436 -20.696,46.133 -46.133,46.133c-25.44,0 -46.132,-20.697 -46.132,-46.133c0,-1.649 0.088,-3.275 0.261,-4.88l-27.005,0c-0.105,1.613 -0.181,3.239 -0.181,4.88c0,40.283 32.775,73.054 73.057,73.054c40.283,0 73.054,-32.771 73.054,-73.054c0,-1.641 -0.072,-3.267 -0.181,-4.88l-27.001,0Z" style="fill:#4adeb5;fill-rule:nonzero;"/><path d="M327.999,136.945c-0.442,-2.563 -0.688,-5.19 -0.688,-7.878c0,-25.436 20.697,-46.133 46.132,-46.133c25.44,0 46.133,20.697 46.133,46.133c0,2.688 -0.245,5.315 -0.683,7.878l27.173,0c0.283,-2.591 0.435,-5.218 0.435,-7.878c0,-40.283 -32.774,-73.053 -73.058,-73.053c-40.283,0 -73.053,32.77 -73.053,73.053c0,2.66 0.152,5.287 0.43,7.878l27.178,0Z" style="fill:#4adeb5;fill-rule:nonzero;"/><path d="M859.664,33.39l10.007,0l0,96.045l3.847,6.765l26.703,-0.01l0,-133.824l-40.557,0l0,31.024Z" style="fill:#4adeb5;fill-rule:nonzero;"/><path d="M826.886,2.356l-28.083,0.01l0,133.823l30.549,0l0,-129.497l-2.466,-4.336Z" style="fill:#fff;fill-rule:nonzero;"/><path d="M826.886,2.356l-28.083,0.01l0,2.463l74.716,131.371l26.702,-0.011l0,-4.89l-73.335,-128.943Z" style="fill:#fff;fill-rule:nonzero;"/><path d="M745.736,69.176c0,-22.337 -15.344,-39.817 -37.681,-39.817c-22.53,0 -37.486,17.48 -37.486,39.817c0,22.336 14.956,40.011 37.486,40.011c22.337,0 37.681,-17.675 37.681,-40.011m-105.855,0c0,-37.875 30.106,-68.563 68.369,-68.563c37.68,0 68.174,30.688 68.174,68.563c0,37.874 -30.494,68.757 -68.174,68.757c-38.263,0 -68.369,-30.883 -68.369,-68.757" style="fill:#fff;fill-rule:nonzero;"/><path d="M1018.82,109.575l0,26.609l-87.598,0l0,-133.823l85.85,0l0,26.609l-55.356,0l0,27.581l48.557,0l0,27.385l-48.557,0l0,25.639l57.104,0Z" style="fill:#fff;fill-rule:nonzero;"/></g></svg>