<svg id="Icon_Set" enable-background="new 0 0 64 64" height="512" viewBox="0 0 64 64" width="512" xmlns="http://www.w3.org/2000/svg"><path d="m40 48h-35c-.552 0-1-.448-1-1v-42c0-.552.448-1 1-1h35c.552 0 1 .448 1 1v42c0 .552-.448 1-1 1z" fill="#c2c2c2"/><path d="m40 48.5h-35c-.827 0-1.5-.673-1.5-1.5v-42c0-.827.673-1.5 1.5-1.5h35c.827 0 1.5.673 1.5 1.5v42c0 .827-.673 1.5-1.5 1.5zm-35-44c-.275 0-.5.224-.5.5v42c0 .276.225.5.5.5h35c.275 0 .5-.224.5-.5v-42c0-.276-.225-.5-.5-.5z" fill="#212a41"/><path d="m43 48h-35c-.552 0-1-.448-1-1v-42c0-.552.448-1 1-1h35c.552 0 1 .448 1 1v42c0 .552-.448 1-1 1z" fill="#e0e0e0"/><path d="m43 48.5h-35c-.827 0-1.5-.673-1.5-1.5v-42c0-.827.673-1.5 1.5-1.5h35c.827 0 1.5.673 1.5 1.5v42c0 .827-.673 1.5-1.5 1.5zm-35-44c-.275 0-.5.224-.5.5v42c0 .276.225.5.5.5h35c.275 0 .5-.224.5-.5v-42c0-.276-.225-.5-.5-.5z" fill="#212a41"/><path d="m9 46.5c-.276 0-.5-.224-.5-.5v-40c0-.276.224-.5.5-.5s.5.224.5.5v40c0 .276-.224.5-.5.5z" fill="#fefefe"/><path d="m42 46.5c-.276 0-.5-.224-.5-.5v-40c0-.276.224-.5.5-.5s.5.224.5.5v40c0 .276-.224.5-.5.5z" fill="#c2c2c2"/><path d="m12 20h4v6h-4z" fill="#d32e5e"/><path d="m16 26.5h-4c-.276 0-.5-.224-.5-.5v-6c0-.276.224-.5.5-.5h4c.276 0 .5.224.5.5v6c0 .276-.224.5-.5.5zm-3.5-1h3v-5h-3z" fill="#212a41"/><path d="m20 12h4v14h-4z" fill="#d32e5e"/><path d="m24 26.5h-4c-.276 0-.5-.224-.5-.5v-14c0-.276.224-.5.5-.5h4c.276 0 .5.224.5.5v14c0 .276-.224.5-.5.5zm-3.5-1h3v-13h-3z" fill="#212a41"/><path d="m28 8h4v18h-4z" fill="#d32e5e"/><path d="m32 26.5h-4c-.276 0-.5-.224-.5-.5v-18c0-.276.224-.5.5-.5h4c.276 0 .5.224.5.5v18c0 .276-.224.5-.5.5zm-3.5-1h3v-17h-3z" fill="#212a41"/><path d="m56 60h-35c-.552 0-1-.448-1-1v-42c0-.552.448-1 1-1h35c.552 0 1 .448 1 1v42c0 .552-.448 1-1 1z" fill="#c2c2c2"/><path d="m56 60.5h-35c-.827 0-1.5-.673-1.5-1.5v-42c0-.827.673-1.5 1.5-1.5h35c.827 0 1.5.673 1.5 1.5v42c0 .827-.673 1.5-1.5 1.5zm-35-44c-.275 0-.5.224-.5.5v42c0 .276.225.5.5.5h35c.275 0 .5-.224.5-.5v-42c0-.276-.225-.5-.5-.5z" fill="#212a41"/><path d="m59 60h-35c-.552 0-1-.448-1-1v-42c0-.552.448-1 1-1h35c.552 0 1 .448 1 1v42c0 .552-.448 1-1 1z" fill="#e0e0e0"/><path d="m59 60.5h-35c-.827 0-1.5-.673-1.5-1.5v-42c0-.827.673-1.5 1.5-1.5h35c.827 0 1.5.673 1.5 1.5v42c0 .827-.673 1.5-1.5 1.5zm-35-44c-.275 0-.5.224-.5.5v42c0 .276.225.5.5.5h35c.275 0 .5-.224.5-.5v-42c0-.276-.225-.5-.5-.5z" fill="#212a41"/><path d="m42 35h-12c-.552 0-1-.448-1-1v-12c0-.552.448-1 1-1h12c.552 0 1 .448 1 1v12c0 .552-.448 1-1 1z" fill="#bed38e"/><path d="m42 35.5h-12c-.827 0-1.5-.673-1.5-1.5v-12c0-.827.673-1.5 1.5-1.5h12c.827 0 1.5.673 1.5 1.5v12c0 .827-.673 1.5-1.5 1.5zm-12-14c-.275 0-.5.224-.5.5v12c0 .276.225.5.5.5h12c.275 0 .5-.224.5-.5v-12c0-.276-.225-.5-.5-.5z" fill="#212a41"/><path d="m25 58.5c-.276 0-.5-.224-.5-.5v-40c0-.276.224-.5.5-.5s.5.224.5.5v40c0 .276-.224.5-.5.5z" fill="#fefefe"/><path d="m58 58.5c-.276 0-.5-.224-.5-.5v-40c0-.276.224-.5.5-.5s.5.224.5.5v40c0 .276-.224.5-.5.5z" fill="#c2c2c2"/><g fill="#212a41"><path d="m43 42.5h-14c-.276 0-.5-.224-.5-.5s.224-.5.5-.5h14c.276 0 .5.224.5.5s-.224.5-.5.5z"/><path d="m54 42.5h-7c-.276 0-.5-.224-.5-.5s.224-.5.5-.5h7c.276 0 .5.224.5.5s-.224.5-.5.5z"/><path d="m43 46.5h-14c-.276 0-.5-.224-.5-.5s.224-.5.5-.5h14c.276 0 .5.224.5.5s-.224.5-.5.5z"/><path d="m54 46.5h-7c-.276 0-.5-.224-.5-.5s.224-.5.5-.5h7c.276 0 .5.224.5.5s-.224.5-.5.5z"/><path d="m43 50.5h-14c-.276 0-.5-.224-.5-.5s.224-.5.5-.5h14c.276 0 .5.224.5.5s-.224.5-.5.5z"/><path d="m20 32.5h-8c-.276 0-.5-.224-.5-.5s.224-.5.5-.5h8c.276 0 .5.224.5.5s-.224.5-.5.5z"/><path d="m20 36.5h-8c-.276 0-.5-.224-.5-.5s.224-.5.5-.5h8c.276 0 .5.224.5.5s-.224.5-.5.5z"/><path d="m20 40.5h-8c-.276 0-.5-.224-.5-.5s.224-.5.5-.5h8c.276 0 .5.224.5.5s-.224.5-.5.5z"/><path d="m54 50.5h-7c-.276 0-.5-.224-.5-.5s.224-.5.5-.5h7c.276 0 .5.224.5.5s-.224.5-.5.5z"/><path d="m54 54.5h-7c-.276 0-.5-.224-.5-.5s.224-.5.5-.5h7c.276 0 .5.224.5.5s-.224.5-.5.5z"/><path d="m36.5 31.5h-2.5c-.276 0-.5-.224-.5-.5s.224-.5.5-.5h2.5c.552 0 1-.449 1-1s-.448-1-1-1h-1c-1.103 0-2-.897-2-2s.897-2 2-2h2.5c.276 0 .5.224.5.5s-.224.5-.5.5h-2.5c-.552 0-1 .449-1 1s.448 1 1 1h1c1.103 0 2 .897 2 2s-.897 2-2 2z"/><path d="m36 25.5c-.276 0-.5-.224-.5-.5v-2c0-.276.224-.5.5-.5s.5.224.5.5v2c0 .276-.224.5-.5.5z"/><path d="m36 33.5c-.276 0-.5-.224-.5-.5v-2c0-.276.224-.5.5-.5s.5.224.5.5v2c0 .276-.224.5-.5.5z"/></g></svg>