
<svg width="1450px" height="85px" viewBox="0 0 1450 85" version="1.1" xmlns="http://www.w3.org/2000/svg">
   
    <g id="Page-1" stroke="none" stroke-width="1" fill="none" fill-rule="evenodd">
        <g id="header" fill="#4ADEB5" fill-rule="nonzero">
            <path d="M0,76.750271 C52.9108291,64.2002856 112.84091,57.9252929 179.790242,57.9252929 C280.214239,57.9252929 382.338475,76.4730388 503.171809,76.750271 C624.005142,76.4730388 739.653714,54.2740138 860.487048,63.7923173 C981.320381,73.6802638 1068.74014,73.6802638 1189.57347,63.7923173 C1270.12903,57.4467816 1356.93787,64.4386157 1450,84.7678197 L1450,0 L1389.58333,0 C1329.16667,0 1208.33333,0 1087.5,0 C966.666667,0 845.833333,0 725,0 C604.166667,0 483.333333,0 362.5,0 C241.666667,0 120.833333,0 60.4166667,0 L0,0 L0,76.750271 Z" id="Path"></path>
        </g>
    </g>
</svg>