<svg width="55" height="55" viewBox="0 0 55 55" fill="none" xmlns="http://www.w3.org/2000/svg">
<g clip-path="url(#clip0)">
<path d="M44.044 26.157C43.426 26.1562 42.8336 25.9104 42.3966 25.4734C41.9596 25.0364 41.7138 24.444 41.713 23.826V21.686C39.459 21.675 37.3005 20.7748 35.7067 19.181C34.1128 17.5873 33.2123 15.4289 33.201 13.175H31.274C30.6643 13.1624 30.0838 12.9113 29.657 12.4756C29.2303 12.0399 28.9913 11.4544 28.9913 10.8445C28.9913 10.2346 29.2303 9.64907 29.657 9.21339C30.0838 8.77771 30.6643 8.52663 31.274 8.514H33.201C33.2137 6.25483 34.1187 4.09223 35.7189 2.49745C37.3191 0.902666 39.4848 0.00497795 41.744 0L46.344 0C48.6095 0.00264657 50.7814 0.903771 52.3833 2.5057C53.9852 4.10762 54.8863 6.27954 54.889 8.545V13.145C54.8848 15.4045 53.9876 17.5706 52.3929 19.1713C50.7982 20.772 48.6354 21.6773 46.376 21.69V23.83C46.3744 24.4475 46.128 25.0393 45.6909 25.4755C45.2538 25.9116 44.6615 26.1567 44.044 26.157ZM37.862 13.174C37.8746 14.1969 38.2886 15.1739 39.0147 15.8944C39.7409 16.615 40.721 17.0214 41.744 17.026H46.344C47.3737 17.0247 48.3608 16.615 49.0889 15.8869C49.817 15.1588 50.2267 14.1717 50.228 13.142V8.542C50.2259 7.51283 49.8159 6.52645 49.0879 5.799C48.3599 5.07154 47.3732 4.66232 46.344 4.661H41.744C40.721 4.66564 39.7409 5.07203 39.0147 5.79257C38.2886 6.51311 37.8746 7.49011 37.862 8.513H41.916C42.5257 8.52563 43.1062 8.77671 43.533 9.21239C43.9597 9.64807 44.1987 10.2336 44.1987 10.8435C44.1987 11.4534 43.9597 12.0389 43.533 12.4746C43.1062 12.9103 42.5257 13.1614 41.916 13.174H37.862Z" fill="#39BE92"/>
<path d="M48.3 54.887H39.788C38.0421 54.8836 36.3687 54.1885 35.1341 52.9539C33.8995 51.7194 33.2044 50.0459 33.201 48.3V46.374H31.061C30.4513 46.3614 29.8708 46.1103 29.444 45.6746C29.0173 45.2389 28.7783 44.6534 28.7783 44.0435C28.7783 43.4336 29.0173 42.8481 29.444 42.4124C29.8708 41.9767 30.4513 41.7256 31.061 41.713H33.2V39.787C33.2021 38.0408 33.8968 36.3667 35.1317 35.132C36.3666 33.8973 38.0408 33.2028 39.787 33.201H41.713V31.274C41.7256 30.6643 41.9767 30.0838 42.4124 29.657C42.8481 29.2303 43.4337 28.9913 44.0435 28.9913C44.6534 28.9913 45.2389 29.2303 45.6746 29.657C46.1103 30.0838 46.3614 30.6643 46.374 31.274V33.201H48.299C50.0449 33.2042 51.7185 33.899 52.9532 35.1334C54.188 36.3677 54.8833 38.0411 54.887 39.787V48.3C54.8836 50.0459 54.1885 51.7194 52.9539 52.9539C51.7194 54.1885 50.0459 54.8836 48.3 54.887ZM39.788 37.862C39.2774 37.8623 38.7877 38.0651 38.4264 38.426C38.0651 38.7869 37.8618 39.2764 37.861 39.787V48.3C37.8615 48.8106 38.0646 49.3002 38.4257 49.6613C38.7868 50.0224 39.2764 50.2255 39.787 50.226H48.301C48.5542 50.2263 48.805 50.1766 49.039 50.08C49.273 49.9834 49.4857 49.8416 49.6649 49.6627C49.8441 49.4839 49.9864 49.2715 50.0835 49.0377C50.1806 48.8038 50.2307 48.5532 50.231 48.3V39.787C50.2302 39.2758 50.0265 38.7859 49.6645 38.4249C49.3026 38.0639 48.8122 37.8615 48.301 37.862H46.375V41.916C46.3814 42.2261 46.3259 42.5344 46.2117 42.8227C46.0974 43.1111 45.9268 43.3738 45.7098 43.5954C45.4927 43.817 45.2336 43.993 44.9477 44.1132C44.6617 44.2334 44.3547 44.2953 44.0445 44.2953C43.7343 44.2953 43.4273 44.2334 43.1413 44.1132C42.8554 43.993 42.5963 43.817 42.3793 43.5954C42.1622 43.3738 41.9916 43.1111 41.8774 42.8227C41.7631 42.5344 41.7076 42.2261 41.714 41.916V37.862H39.788Z" fill="#39BE92"/>
<path d="M10.949 25.837C10.3311 25.8362 9.73878 25.5903 9.30196 25.1533C8.86515 24.7163 8.61953 24.1239 8.619 23.506V21.687H8.545C6.27954 21.6844 4.10762 20.7832 2.5057 19.1813C0.903771 17.5794 0.00264657 15.4075 0 13.142L0 8.542C0.00344022 6.27706 0.904914 4.10591 2.50675 2.50463C4.10859 0.903357 6.28006 0.0026449 8.545 0L13.145 0C15.4045 0.0041873 17.5706 0.901421 19.1713 2.4961C20.772 4.09078 21.6773 6.25358 21.69 8.513H23.83C24.1401 8.50658 24.4484 8.56211 24.7368 8.67634C25.0251 8.79057 25.2878 8.96121 25.5094 9.17825C25.731 9.3953 25.907 9.65438 26.0272 9.94033C26.1474 10.2263 26.2093 10.5333 26.2093 10.8435C26.2093 11.1537 26.1474 11.4607 26.0272 11.7467C25.907 12.0326 25.731 12.2917 25.5094 12.5087C25.2878 12.7258 25.0251 12.8964 24.7368 13.0107C24.4484 13.1249 24.1401 13.1804 23.83 13.174H21.69C21.6791 15.4095 20.7933 17.5519 19.2224 19.1425C17.6515 20.7331 15.5202 21.6453 13.285 21.684V23.507C13.2839 24.1257 13.0373 24.7186 12.5993 25.1555C12.1612 25.5924 11.5677 25.8375 10.949 25.837ZM8.545 4.661C7.51531 4.66232 6.52816 5.07195 5.80006 5.80006C5.07195 6.52816 4.66232 7.51531 4.661 8.545V13.145C4.66232 14.1747 5.07195 15.1618 5.80006 15.8899C6.52816 16.618 7.51531 17.0277 8.545 17.029H8.619V12.869C8.61258 12.5589 8.66811 12.2506 8.78234 11.9622C8.89657 11.6739 9.06721 11.4112 9.28425 11.1896C9.5013 10.968 9.76038 10.792 10.0463 10.6718C10.3323 10.5516 10.6393 10.4897 10.9495 10.4897C11.2597 10.4897 11.5667 10.5516 11.8527 10.6718C12.1386 10.792 12.3977 10.968 12.6147 11.1896C12.8318 11.4112 13.0024 11.6739 13.1167 11.9622C13.2309 12.2506 13.2864 12.5589 13.28 12.869V17.026C14.285 16.989 15.2365 16.5641 15.9348 15.8404C16.6331 15.1167 17.0239 14.1506 17.025 13.145V8.545C17.0237 7.51531 16.614 6.52816 15.8859 5.80006C15.1578 5.07195 14.1707 4.66232 13.141 4.661H8.545Z" fill="#39BE92"/>
<path d="M13.141 54.888H8.541C6.27606 54.8843 4.10502 53.9826 2.50393 52.3806C0.902838 50.7785 0.00237973 48.607 0 46.342L0 41.742C0.00396971 39.4773 0.905815 37.3065 2.50781 35.7056C4.10981 34.1047 6.28123 33.2044 8.546 33.202H8.62V30.955C8.63263 30.3453 8.88371 29.7648 9.31939 29.3381C9.75507 28.9113 10.3406 28.6723 10.9505 28.6723C11.5604 28.6723 12.1459 28.9113 12.5816 29.3381C13.0173 29.7648 13.2684 30.3453 13.281 30.955V33.204C15.5161 33.2427 17.6472 34.1548 19.2181 35.7452C20.789 37.3355 21.6748 39.4777 21.686 41.713H23.613C23.9231 41.7066 24.2314 41.7621 24.5198 41.8764C24.8081 41.9906 25.0708 42.1612 25.2924 42.3783C25.514 42.5953 25.69 42.8544 25.8102 43.1404C25.9304 43.4263 25.9923 43.7334 25.9923 44.0435C25.9923 44.3537 25.9304 44.6608 25.8102 44.9467C25.69 45.2326 25.514 45.4917 25.2924 45.7088C25.0708 45.9258 24.8081 46.0965 24.5198 46.2107C24.2314 46.3249 23.9231 46.3804 23.613 46.374H21.686C21.6736 48.6336 20.7684 50.7967 19.1677 52.3916C17.567 53.9865 15.4006 54.8838 13.141 54.888ZM8.546 37.862C7.5163 37.8633 6.52916 38.273 5.80106 39.0011C5.07295 39.7292 4.66332 40.7163 4.662 41.746V46.346C4.66464 47.3749 5.07486 48.3607 5.80282 49.0877C6.53078 49.8148 7.51717 50.2237 8.546 50.225H13.146C14.1693 50.2209 15.15 49.8148 15.8766 49.0942C16.6032 48.3736 17.0174 47.3963 17.03 46.373H12.972C12.3623 46.3604 11.7818 46.1093 11.355 45.6736C10.9283 45.238 10.6893 44.6524 10.6893 44.0425C10.6893 43.4327 10.9283 42.8471 11.355 42.4114C11.7818 41.9757 12.3623 41.7247 12.972 41.712H17.026C17.0134 40.6888 16.5992 39.7115 15.8726 38.9909C15.146 38.2703 14.1653 37.8641 13.142 37.86L8.546 37.862Z" fill="#39BE92"/>
</g>
<defs>
<clipPath id="clip0">
<rect width="54.887" height="54.887" fill="white"/>
</clipPath>
</defs>
</svg>
