<?xml version="1.0" encoding="UTF-8"?>
<svg width="87px" height="87px" viewBox="0 0 87 87" version="1.1" xmlns="http://www.w3.org/2000/svg" xmlns:xlink="http://www.w3.org/1999/xlink">
    <!-- Generator: Sketch 57.1 (83088) - https://sketch.com -->
    <title>Group 5</title>
    <desc>Created with Sketch.</desc>
    <g id="Page-1" stroke="none" stroke-width="1" fill="none" fill-rule="evenodd">
        <g id="Desktop-HD" transform="translate(-676.000000, -990.000000)" fill-rule="nonzero">
            <g id="Group-5" transform="translate(676.000000, 990.000000)">
                <path d="M87,43.5 C87,67.5246964 67.5246964,87 43.5,87 C19.4753036,87 0,67.5246964 0,43.5 C0,19.4753036 19.4753036,0 43.5,0 C67.5246964,0 87,19.4753036 87,43.5 Z" id="Path" fill="#4ADEB5"></path>
                <g id="brain" transform="translate(11.266187, 14.395683)" fill="#FFFFFF">
                    <path d="M51.5131716,31.5130489 C52.2397739,32.5521873 53.4464284,33.232677 54.8128005,33.232677 C57.0339987,33.232677 58.8345324,31.4362918 58.8345324,29.2202114 C58.8345324,27.0041311 57.0339987,25.2077459 54.8128005,25.2077459 C53.4464284,25.2077459 52.2397739,25.8882356 51.5131716,26.927374 L31.7162986,26.927374 L31.7162986,21.1952804 L50.2165355,21.1952804 C50.8261614,21.1952804 51.4105925,20.9537872 51.8416049,20.5237681 L56.43787,15.9380931 C56.8688822,15.507625 57.1109331,14.9245404 57.1109331,14.3163191 L57.1109331,7.30449174 C58.1524712,6.57956366 58.8345324,5.37568939 58.8345324,4.01246558 C58.8345324,1.79638512 57.0339987,0 54.8128005,0 C52.5916024,0 50.7910686,1.79638512 50.7910686,4.01246558 C50.7910686,5.37568939 51.4731298,6.57956366 52.514668,7.30449174 L52.514668,13.3669551 L49.2645291,16.6091565 L31.7162986,16.6091565 L31.7162986,8.2543046 C31.7162986,6.06605425 30.8628222,4.0156076 29.3133373,2.48136364 C27.7719509,0.954301631 25.7190184,0.113564552 23.5333631,0.113564552 C19.0743201,0.113564552 15.43681,3.7224943 15.3522272,8.19011601 L15.0570873,8.19011601 C13.0158524,8.19011601 11.1001421,8.98551683 9.66268448,10.4286399 C8.25582074,11.8412397 7.48827681,13.7054045 7.50087424,15.6777475 C7.50537327,16.4035732 7.61695057,17.1177284 7.82570811,17.7995648 C5.79572103,18.3422508 3.9582949,19.4859763 2.56852751,21.0897954 C0.911964526,23.0010918 0,25.4465457 0,27.9754898 C0,31.2455212 1.5008947,34.1717169 3.85121662,36.1050081 C2.8600682,37.5099769 1.92425856,39.5294514 1.92425856,42.1558007 C1.92425856,47.3577767 6.16644562,51.5897406 11.3804351,51.5897406 L11.5815442,51.5897406 C12.4323211,51.5906384 13.1935663,52.1099831 13.5210996,52.912566 C14.9882512,56.509825 18.4233025,58.8345324 22.2727195,58.8345324 C22.3806975,58.8345324 22.4882257,58.8327369 22.5930543,58.8295948 C25.0630519,58.7541843 27.368383,57.7195347 29.0843339,55.9168653 C30.7813887,54.1339463 31.7158487,51.7966705 31.7158487,49.3364038 C31.7158487,48.0701363 30.686908,47.0435664 29.4177161,47.0435664 C28.1485243,47.0435664 27.1195836,48.0701363 27.1195836,49.3364038 C27.1195836,51.9649974 25.0261594,54.1676117 22.4513332,54.2461642 C22.3919452,54.2479598 22.3325574,54.2488575 22.2722696,54.2488575 C20.3016704,54.2488575 18.5375793,53.0458809 17.7785836,51.1844092 C16.7437941,48.6478343 14.3133886,47.0067588 11.5833438,47.0040656 L11.3799852,47.0040656 C8.7007802,47.0040656 6.52052363,44.8288327 6.52052363,42.1558007 C6.52052363,40.2772719 7.3659017,38.949509 8.0223182,38.2012396 C8.83485287,38.4018853 9.68383021,38.5091657 10.5575524,38.5091657 C11.8267443,38.5091657 12.8556851,37.4825958 12.8556851,36.2163283 C12.8556851,34.9500608 11.8267443,33.9234908 10.5575524,33.9234908 C7.2705211,33.9234908 4.59626507,31.2553965 4.59626507,27.9759386 C4.59626507,25.0694933 6.76212457,22.5427936 9.62894131,22.0997571 L11.891981,21.7559213 C12.7742516,21.6217086 13.4986043,20.9901458 13.750553,20.1359428 C14.0020518,19.2817396 13.735706,18.3593079 13.0662421,17.7699392 C12.4552665,17.2321907 12.1020883,16.4587845 12.0966894,15.6490197 C12.0921903,14.9065856 12.3855306,14.2005101 12.9227214,13.6609661 C13.4909557,13.0904501 14.2490516,12.7762398 15.0566373,12.7762398 L15.5231924,12.7762398 C17.9625962,12.7762398 19.9471425,10.796266 19.9471425,8.3624828 L19.9471425,8.34946543 C19.9471425,6.33672401 21.5560153,4.69923947 23.5333631,4.69923947 C25.544454,4.69923947 27.1195836,6.2608647 27.1195836,8.2543046 L27.1195836,39.5523439 C27.1195836,40.8186114 28.1485243,41.8451814 29.4177161,41.8451814 C29.5103973,41.8451814 29.6012787,41.8379994 29.6912604,41.8276754 C29.7151057,41.8281242 29.7385009,41.8312663 29.762346,41.8312663 L49.3792557,41.8312663 L52.6293946,45.0739166 L52.6293946,51.3163776 C51.5235196,52.0314305 50.7910686,53.2725611 50.7910686,54.6856097 C50.7910686,56.9016902 52.5916024,58.6980753 54.8128005,58.6980753 C57.0339987,58.6980753 58.8345324,56.9016902 58.8345324,54.6856097 C58.8345324,53.3726596 58.202411,52.2073882 57.2256596,51.4752782 L57.2256596,44.1241038 C57.2256596,43.5158824 56.9836089,42.9327979 56.5530465,42.5027786 L51.9563315,37.9166549 C51.5253192,37.4870844 50.9408881,37.2451426 50.3312621,37.2451426 L31.7158487,37.2451426 L31.7158487,31.5130489 L51.5131716,31.5130489 Z" id="Path"></path>
                </g>
            </g>
        </g>
    </g>
</svg>