<svg width="59" height="59" viewBox="0 0 59 59" fill="none" xmlns="http://www.w3.org/2000/svg">
<path d="M51.513 31.513C52.0011 32.2138 52.7002 32.7406 53.5084 33.0167C54.3167 33.2927 55.1919 33.3036 56.0068 33.0478C56.8217 32.792 57.5337 32.2828 58.0391 31.5943C58.5446 30.9059 58.8172 30.0741 58.8172 29.22C58.8172 28.3659 58.5446 27.5341 58.0391 26.8456C57.5337 26.1572 56.8217 25.648 56.0068 25.3922C55.1919 25.1364 54.3167 25.1473 53.5084 25.4233C52.7002 25.6994 52.0011 26.2261 51.513 26.927H31.713V21.2H50.213C50.8223 21.2001 51.4067 20.9584 51.838 20.528L56.438 15.942C56.6513 15.7291 56.8205 15.4763 56.936 15.198C57.0515 14.9197 57.111 14.6213 57.111 14.32V7.29998C57.8133 6.81043 58.3411 6.10956 58.6175 5.29934C58.894 4.48913 58.9047 3.61184 58.6481 2.79511C58.3915 1.97838 57.8811 1.26482 57.1909 0.758245C56.5008 0.251672 55.6671 -0.0214844 54.811 -0.0214844C53.9549 -0.0214844 53.1212 0.251672 52.431 0.758245C51.7409 1.26482 51.2305 1.97838 50.9739 2.79511C50.7173 3.61184 50.728 4.48913 51.0045 5.29934C51.2809 6.10956 51.8087 6.81043 52.511 7.29998V13.362L49.261 16.604H31.716V8.25398C31.7203 7.18041 31.5103 6.11679 31.0982 5.12546C30.686 4.13414 30.0801 3.23507 29.316 2.48098C28.1729 1.35094 26.7229 0.581765 25.1462 0.26908C23.5696 -0.0436054 21.9358 0.113988 20.4479 0.722269C18.9601 1.33055 17.6839 2.36269 16.7778 3.69039C15.8718 5.01809 15.376 6.58279 15.352 8.18998H15.052C14.0494 8.18696 13.0562 8.38336 12.1301 8.76774C11.2041 9.15212 10.3638 9.71682 9.658 10.429C8.96731 11.1164 8.42069 11.9348 8.05015 12.8361C7.6796 13.7374 7.49257 14.7035 7.5 15.678C7.50494 16.3974 7.61476 17.1123 7.826 17.8C5.95332 18.2961 4.25401 19.2998 2.91541 20.7002C1.57681 22.1007 0.650918 23.8435 0.239809 25.7367C-0.1713 27.6299 -0.0516582 29.5998 0.585543 31.4293C1.22274 33.2588 2.35276 34.8768 3.851 36.105C2.5915 37.8707 1.91754 39.9871 1.924 42.156C1.92983 44.6601 2.92865 47.0596 4.70137 48.8282C6.47408 50.5968 8.87592 51.59 11.38 51.59H11.58C11.9984 51.5922 12.4065 51.7193 12.7522 51.955C13.0978 52.1907 13.3652 52.5243 13.52 52.913C14.2213 54.6607 15.4296 56.1587 16.9893 57.214C18.549 58.2694 20.3888 58.8339 22.272 58.835C22.38 58.835 22.488 58.835 22.592 58.835C25.0561 58.7619 27.3905 57.7143 29.083 55.922C30.7758 54.15 31.7187 51.7926 31.715 49.342C31.715 48.732 31.4727 48.147 31.0413 47.7156C30.61 47.2843 30.025 47.042 29.415 47.042C28.805 47.042 28.22 47.2843 27.7887 47.7156C27.3573 48.147 27.115 48.732 27.115 49.342C27.119 50.6041 26.6359 51.819 25.7663 52.7337C24.8967 53.6484 23.7077 54.1922 22.447 54.252H22.268C21.2987 54.248 20.3528 53.9541 19.5519 53.4081C18.751 52.862 18.1318 52.0888 17.774 51.188C17.2754 49.9523 16.4186 48.8939 15.3138 48.149C14.2089 47.4041 12.9065 47.0068 11.574 47.008H11.374C10.0873 47.0077 8.85321 46.4972 7.94234 45.5884C7.03148 44.6796 6.51818 43.4467 6.515 42.16C6.5137 40.7024 7.04745 39.2951 8.015 38.205C8.84444 38.4098 9.69565 38.5132 10.55 38.513C10.8511 38.513 11.1493 38.4537 11.4275 38.3384C11.7057 38.2232 11.9585 38.0543 12.1714 37.8414C12.3843 37.6285 12.5532 37.3757 12.6685 37.0975C12.7837 36.8193 12.843 36.5211 12.843 36.22C12.843 35.9189 12.7837 35.6207 12.6685 35.3425C12.5532 35.0643 12.3843 34.8115 12.1714 34.5986C11.9585 34.3857 11.7057 34.2168 11.4275 34.1015C11.1493 33.9863 10.8511 33.927 10.55 33.927C9.04729 33.9349 7.59729 33.3737 6.49153 32.3561C5.38577 31.3385 4.70625 29.94 4.58958 28.4418C4.47291 26.9436 4.92775 25.4568 5.86265 24.2803C6.79754 23.1037 8.14318 22.3248 9.629 22.1L11.892 21.756C12.3238 21.6914 12.7282 21.5047 13.0574 21.2179C13.3867 20.9312 13.6272 20.5563 13.7506 20.1375C13.8739 19.7187 13.875 19.2733 13.7537 18.8538C13.6325 18.4344 13.3938 18.0584 13.066 17.77C12.7641 17.5046 12.5217 17.1785 12.3545 16.813C12.1874 16.4475 12.0993 16.0509 12.096 15.649C12.0947 15.2794 12.167 14.9132 12.3088 14.5718C12.4507 14.2305 12.6591 13.9208 12.922 13.661C13.2013 13.3793 13.5337 13.1561 13.9001 13.0041C14.2665 12.8522 14.6594 12.7746 15.056 12.776H15.523C16.6946 12.776 17.8183 12.3113 18.6477 11.4838C19.4771 10.6563 19.9444 9.53357 19.947 8.36198V8.34898C19.9401 7.38999 20.3136 6.46736 20.9858 5.78335C21.6581 5.09934 22.574 4.70975 23.533 4.69998C24.0033 4.69279 24.4702 4.77955 24.9065 4.9552C25.3428 5.13084 25.7396 5.39182 26.0737 5.72284C26.4078 6.05386 26.6724 6.44826 26.8521 6.8829C27.0318 7.31754 27.1229 7.78368 27.12 8.25398V39.554C27.1219 40.1628 27.365 40.746 27.7961 41.1758C28.2273 41.6056 28.8112 41.847 29.42 41.847C29.5116 41.8462 29.6031 41.8402 29.694 41.829C29.718 41.829 29.741 41.829 29.765 41.829H49.379L52.629 45.072V51.314C51.9108 51.7792 51.3598 52.4614 51.056 53.2613C50.7523 54.0612 50.7116 54.9372 50.9399 55.7618C51.1682 56.5865 51.6537 57.3168 52.3256 57.8465C52.9976 58.3763 53.821 58.6778 54.6762 58.7074C55.5313 58.737 56.3736 58.493 57.0806 58.0109C57.7875 57.5288 58.3222 56.8337 58.6069 56.0268C58.8917 55.2199 58.9116 54.3432 58.6638 53.5242C58.4159 52.7052 57.9133 51.9867 57.229 51.473V44.124C57.2289 43.8228 57.1694 43.5246 57.0539 43.2465C56.9384 42.9683 56.7692 42.7157 56.556 42.503L51.956 37.917C51.5247 37.4866 50.9403 37.2449 50.331 37.245H31.716V31.513H51.513Z" fill="#39BE92"/>
</svg>
