<?xml version="1.0" encoding="UTF-8"?>
<svg width="87px" height="87px" viewBox="0 0 87 87" version="1.1" xmlns="http://www.w3.org/2000/svg" xmlns:xlink="http://www.w3.org/1999/xlink">
    <!-- Generator: Sketch 57.1 (83088) - https://sketch.com -->
    <title>Group 6</title>
    <desc>Created with Sketch.</desc>
    <g id="Page-1" stroke="none" stroke-width="1" fill="none" fill-rule="evenodd">
        <g id="Desktop-HD" transform="translate(-262.000000, -990.000000)" fill-rule="nonzero">
            <g id="Group-6" transform="translate(262.000000, 990.000000)">
                <path d="M87,43.5 C87,67.5246964 67.5246964,87 43.5,87 C19.4753036,87 0,67.5246964 0,43.5 C0,19.4753036 19.4753036,0 43.5,0 C67.5246964,0 87,19.4753036 87,43.5 Z" id="Path" fill="#4ADEB5"></path>
                <g id="Group" transform="translate(16.000000, 16.000000)" fill="#FFFFFF">
                    <path d="M46.3983603,0.0564419633 L41.802282,0.0564419633 C37.1012094,0.0564419633 33.2752913,3.87264959 33.2576912,8.56947387 L31.3307733,8.56947387 C30.0435316,8.56947387 29.0002648,9.61274059 29.0002648,10.8999823 C29.0002648,12.1866172 30.0435316,13.2304908 31.3307733,13.2304908 L33.2576912,13.2304908 C33.2752913,17.9163908 37.0836092,21.7247087 41.7695092,21.7423088 L41.7695092,23.8822498 C41.7695092,25.1688847 42.8133828,26.2127582 44.1000177,26.2127582 C45.3872594,26.2127582 46.4305261,25.1688847 46.4305261,23.8822498 L46.4305261,21.7423088 C51.1279573,21.7247087 54.943558,17.8987906 54.943558,13.197718 L54.943558,8.6016397 C54.943558,3.88964288 51.1103571,0.0564419633 46.3983603,0.0564419633 L46.3983603,0.0564419633 Z M50.2825411,13.198325 C50.2825411,15.3400865 48.5401218,17.0825058 46.3983603,17.0825058 L41.802282,17.0825058 C39.6708378,17.0825058 37.9363083,15.3570798 37.9187081,13.2304908 L41.9716079,13.2304908 C43.2588498,13.2304908 44.3021164,12.1872241 44.3021164,10.8999823 C44.3021164,9.61274059 43.2588498,8.56947387 41.9716079,8.56947387 L37.9187081,8.56947387 C37.9363083,6.44288489 39.6708378,4.71745891 41.802282,4.71745891 L46.3983603,4.71745891 C48.5401218,4.71745891 50.2825411,6.45987818 50.2825411,8.6016397 L50.2825411,13.198325 Z" id="Shape"></path>
                    <path d="M48.3562301,33.2570843 L46.4305261,33.2570843 L46.4305261,31.3307733 C46.4305261,30.0435316 45.3872594,29.0002648 44.1000177,29.0002648 C42.8127759,29.0002648 41.7695092,30.0435316 41.7695092,31.3307733 L41.7695092,33.2570843 L39.8438052,33.2570843 C36.2114892,33.2570843 33.2564773,36.2114892 33.2564773,39.8438052 L33.2564773,41.7695092 L31.1177502,41.7695092 C29.8305085,41.7695092 28.7872418,42.8133828 28.7872418,44.1000177 C28.7872418,45.3872594 29.8305085,46.4305261 31.1177502,46.4305261 L33.2564773,46.4305261 L33.2564773,48.3568371 C33.2564773,51.9885462 36.2114892,54.943558 39.8438052,54.943558 L48.3562301,54.943558 C51.9885462,54.943558 54.943558,51.9885462 54.943558,48.3568371 L54.943558,39.8438052 C54.943558,36.2114892 51.9885462,33.2570843 48.3562301,33.2570843 L48.3562301,33.2570843 Z M50.2825411,48.3568371 C50.2825411,49.4183109 49.4183109,50.2825411 48.3568371,50.2825411 L39.8438052,50.2825411 C38.7817244,50.2825411 37.9181012,49.4183109 37.9181012,48.3568371 L37.9181012,39.8438052 C37.9181012,38.7817244 38.7817244,37.9181012 39.8438052,37.9181012 L41.7695092,37.9181012 L41.7695092,41.9722149 C41.7695092,43.2588498 42.8133828,44.3027234 44.1000177,44.3027234 C45.3872594,44.3027234 46.4305261,43.2588498 46.4305261,41.9722149 L46.4305261,37.9181012 L48.3568371,37.9181012 C49.4183109,37.9181012 50.2825411,38.7817244 50.2825411,39.8438052 L50.2825411,48.3568371 Z" id="Shape"></path>
                    <path d="M23.8822498,8.56947387 L21.7423088,8.56947387 C21.7247087,3.87264959 17.8987906,0.0564419633 13.197718,0.0564419633 L8.6016397,0.0564419633 C3.88964288,0.0564419633 0.0564419633,3.88964288 0.0564419633,8.6016397 L0.0564419633,13.198325 C0.0564419633,17.9097149 3.88964288,21.7435227 8.6016397,21.7435227 L8.67568198,21.7435227 L8.67568198,23.5630186 C8.67568198,24.8496535 9.7189487,25.8935271 11.0061905,25.8935271 C12.2934322,25.8935271 13.3366989,24.8496535 13.3366989,23.5630186 L13.3366989,21.7398812 C17.9740466,21.6652321 21.7247087,17.8811905 21.7423088,13.2304908 L23.8822498,13.2304908 C25.1688847,13.2304908 26.2127582,12.1866172 26.2127582,10.8999823 C26.2127582,9.61274059 25.1688847,8.56947387 23.8822498,8.56947387 Z M17.0818988,13.198325 C17.0818988,15.293355 15.4141288,17.005429 13.3366989,17.0788643 L13.3366989,12.9215771 C13.3366989,11.6343352 12.2934322,10.5910686 11.0061905,10.5910686 C9.7189487,10.5910686 8.67568198,11.6343352 8.67568198,12.9215771 L8.67568198,17.0818988 L8.6016397,17.0818988 C6.45987818,17.0818988 4.71745891,15.3394796 4.71745891,13.197718 L4.71745891,8.6016397 C4.71745891,6.45987818 6.45987818,4.71745891 8.6016397,4.71745891 L13.197718,4.71745891 C15.3394796,4.71745891 17.0818988,6.45987818 17.0818988,8.6016397 L17.0818988,13.198325 Z" id="Shape"></path>
                    <path d="M23.6692267,41.7695092 L21.7423088,41.7695092 C21.7247087,37.1194164 17.9740466,33.3347679 13.3366989,33.2601188 L13.3366989,31.0115421 C13.3366989,29.7249072 12.2934322,28.6810336 11.0061905,28.6810336 C9.7189487,28.6810336 8.67568198,29.7249072 8.67568198,31.0115421 L8.67568198,33.2570843 L8.6016397,33.2570843 C3.88964288,33.2570843 0.0564419633,37.0902851 0.0564419633,41.802282 L0.0564419633,46.3983603 C0.0564419633,51.1103571 3.88964288,54.943558 8.6016397,54.943558 L13.197718,54.943558 C17.8987906,54.943558 21.7247087,51.1279573 21.7423088,46.431133 L23.6692267,46.431133 C24.9564684,46.431133 25.9997352,45.3872594 25.9997352,44.1006245 C25.9997352,42.8133828 24.9564684,41.7695092 23.6692267,41.7695092 Z M13.197718,50.2825411 L8.6016397,50.2825411 C6.45987818,50.2825411 4.71745891,48.5401218 4.71745891,46.3983603 L4.71745891,41.802282 C4.71745891,39.6605204 6.45987818,37.9181012 8.6016397,37.9181012 L13.197718,37.9181012 C15.3285553,37.9181012 17.0636917,39.6429202 17.0812919,41.7695092 L13.0283921,41.7695092 C11.7411502,41.7695092 10.6978836,42.8133828 10.6978836,44.1000177 C10.6978836,45.3872594 11.7411502,46.4305261 13.0283921,46.4305261 L17.0812919,46.4305261 C17.0636917,48.557722 15.3291622,50.2825411 13.197718,50.2825411 Z" id="Shape"></path>
                </g>
            </g>
        </g>
    </g>
</svg>