<svg width="59" height="59" viewBox="0 0 59 59" fill="none" xmlns="http://www.w3.org/2000/svg">
<g clip-path="url(#clip0)">
<path d="M29.424 58.623H29.351H29.315C28.8497 58.6241 28.3931 58.4975 27.9947 58.257C27.5964 58.0165 27.2717 57.6713 27.056 57.259C25.6548 54.9416 24.0072 52.7824 22.142 50.819C20.1359 51.7962 17.9419 52.327 15.711 52.375C12.511 52.375 9.50301 50.983 6.75601 48.237C5.12271 46.5709 3.79335 44.6321 2.82801 42.508C1.93483 40.56 1.2607 38.5188 0.818008 36.422C0.253515 33.8494 -0.0208646 31.2217 8.30856e-06 28.588C-0.0109819 27.9201 0.239654 27.2743 0.698374 26.7887C1.15709 26.3031 1.78753 26.0161 2.45501 25.989C2.52401 25.987 2.71801 25.981 3.01901 25.981C5.77746 26.0023 8.52452 26.3378 11.207 26.981C15.3488 27.8436 19.1709 29.8358 22.25 32.737C25.017 35.504 26.41 38.523 26.389 41.709C26.3602 43.4142 25.9657 45.0934 25.232 46.633C26.6968 48.2017 28.0778 49.8466 29.369 51.561C30.6606 49.8469 32.0415 48.202 33.506 46.633C32.7732 45.0928 32.3787 43.4135 32.349 41.708C32.329 38.521 33.722 35.508 36.488 32.737C39.5649 29.8371 43.3841 27.845 47.523 26.981C50.2064 26.3373 52.9545 26.0018 55.714 25.981C56.032 25.981 56.23 25.987 56.283 25.989C56.9562 26.0156 57.5916 26.307 58.051 26.7997C58.5104 27.2924 58.7566 27.9467 58.736 28.62C58.736 28.62 58.736 28.628 58.736 28.632C58.736 28.636 58.736 28.641 58.736 28.645C58.7507 31.3063 58.4669 33.9609 57.89 36.559C57.0786 40.9368 55.0281 44.9898 51.982 48.237C50.7208 49.5352 49.2366 50.5961 47.6 51.369C47.2696 51.5202 46.9104 51.5983 46.547 51.598C46.0569 51.5968 45.5775 51.4548 45.1658 51.1888C44.7542 50.9229 44.4276 50.5443 44.225 50.098C43.9475 49.482 43.9259 48.781 44.165 48.1491C44.4041 47.5172 44.8843 47.0061 45.5 46.728C46.5777 46.205 47.5533 45.4939 48.381 44.628C50.049 42.96 52.939 38.994 53.552 31.173C45.71 31.801 41.752 34.679 40.096 36.338C38.3 38.134 37.436 39.881 37.447 41.681C37.4491 41.987 37.4759 42.2923 37.527 42.594C39.76 40.487 42.227 38.366 44.86 36.294C45.1227 36.0866 45.4237 35.933 45.7458 35.842C46.0679 35.7511 46.4048 35.7244 46.7372 35.7637C47.0696 35.803 47.391 35.9074 47.683 36.071C47.975 36.2346 48.2319 36.4541 48.439 36.717C48.8569 37.2481 49.047 37.9233 48.9677 38.5945C48.8884 39.2656 48.5462 39.8779 48.016 40.297C35.426 50.218 31.722 57.181 31.686 57.251C31.4713 57.6654 31.1467 58.0126 30.7476 58.2546C30.3486 58.4966 29.8907 58.6241 29.424 58.623ZM5.20001 31.171C5.82901 39.016 8.70601 42.971 10.365 44.632C12.146 46.412 13.896 47.277 15.716 47.277C16.5982 47.2487 17.4738 47.1144 18.324 46.877C16.038 44.677 13.482 42.46 10.724 40.286C10.4486 40.0833 10.2168 39.8273 10.0424 39.5332C9.86797 39.2391 9.75451 38.9129 9.70877 38.574C9.66302 38.2352 9.68593 37.8906 9.77611 37.5607C9.8663 37.2309 10.0219 36.9226 10.2337 36.6541C10.4455 36.3857 10.7092 36.1626 11.009 35.9982C11.3088 35.8337 11.6386 35.7313 11.9788 35.6969C12.319 35.6626 12.6627 35.697 12.9893 35.7982C13.3159 35.8994 13.6188 36.0653 13.88 36.286C16.521 38.369 18.988 40.486 21.212 42.586C21.263 42.2846 21.2901 41.9797 21.293 41.674C21.305 39.874 20.439 38.132 18.647 36.34C16.978 34.675 13.014 31.787 5.20001 31.171Z" fill="#39BE92"/>
<path d="M49.271 24.6C47.0322 24.5976 44.8858 23.7074 43.3025 22.1247C41.7191 20.5419 40.8282 18.3958 40.825 16.157V8.44602C40.8492 6.22205 41.7497 4.09739 43.3309 2.53329C44.9121 0.969195 47.0464 0.0919189 49.2705 0.0919189C51.4946 0.0919189 53.6289 0.969195 55.2102 2.53329C56.7914 4.09739 57.6918 6.22205 57.716 8.44602V16.157C57.7128 18.3956 56.822 20.5416 55.2389 22.1243C53.6558 23.7071 51.5096 24.5974 49.271 24.6ZM49.271 5.10002C48.3841 5.1016 47.5339 5.45464 46.9068 6.08179C46.2796 6.70894 45.9266 7.55909 45.925 8.44602V16.157C45.925 17.0455 46.278 17.8976 46.9062 18.5258C47.5345 19.1541 48.3865 19.507 49.275 19.507C50.1635 19.507 51.0156 19.1541 51.6438 18.5258C52.2721 17.8976 52.625 17.0455 52.625 16.157V8.44602C52.6234 7.55771 52.2693 6.70635 51.6404 6.07897C51.0115 5.45158 50.1593 5.09949 49.271 5.10002Z" fill="#39BE92"/>
<path d="M29.879 24.6C31.7822 24.606 33.6312 23.9664 35.124 22.7858C36.6169 21.6053 37.6653 19.9534 38.098 18.1C38.1747 17.774 38.1864 17.4361 38.1325 17.1055C38.0786 16.775 37.9601 16.4583 37.7839 16.1736C37.6076 15.8888 37.3769 15.6416 37.1051 15.446C36.8332 15.2504 36.5255 15.1102 36.1995 15.0335C35.8735 14.9568 35.5356 14.9451 35.205 14.999C34.8745 15.0529 34.5578 15.1714 34.2731 15.3477C33.9883 15.524 33.7411 15.7546 33.5455 16.0265C33.3499 16.2983 33.2097 16.606 33.133 16.932C32.9373 17.7238 32.4593 18.4169 31.7888 18.8814C31.1183 19.3458 30.3014 19.5495 29.4913 19.4544C28.6813 19.3593 27.9338 18.9718 27.3891 18.3647C26.8444 17.7576 26.54 16.9726 26.533 16.157V8.44601C26.5346 7.55908 26.8876 6.70893 27.5148 6.08178C28.1419 5.45463 28.9921 5.10159 29.879 5.10001C30.6442 5.08035 31.392 5.32982 31.9921 5.80495C32.5923 6.28007 33.0066 6.95072 33.163 7.70001C33.2993 8.35867 33.6904 8.93677 34.251 9.30834C34.8117 9.6799 35.4965 9.81481 36.1562 9.68366C36.8159 9.55252 37.397 9.16594 37.7729 8.60819C38.1488 8.05043 38.289 7.3667 38.163 6.70601C37.7317 4.66063 36.558 2.84752 34.8685 1.61657C33.179 0.385615 31.0934 -0.175922 29.0143 0.04032C26.9351 0.256562 25.0097 1.23526 23.6097 2.78753C22.2097 4.33981 21.4342 6.35564 21.433 8.44601V16.158C21.4365 18.3966 22.3275 20.5425 23.9108 22.125C25.4941 23.7076 27.6404 24.5976 29.879 24.6Z" fill="#39BE92"/>
<path d="M10.488 24.6C8.24925 24.5976 6.10282 23.7074 4.51949 22.1246C2.93616 20.5419 2.0452 18.3957 2.04202 16.157L2.04202 8.44598C2.04528 6.35731 2.82134 4.34373 4.2207 2.79314C5.62007 1.24256 7.54374 0.26466 9.62113 0.0478438C11.6985 -0.168972 13.7827 0.390629 15.472 1.61884C17.1614 2.84706 18.3365 4.657 18.771 6.69998C18.8038 6.86463 18.8202 7.03211 18.82 7.19998V11.623C18.8192 12.2988 18.5504 12.9467 18.0726 13.4245C17.5947 13.9024 16.9468 14.1712 16.271 14.172H7.14202V16.159C7.14234 16.9328 7.4106 17.6826 7.90119 18.2809C8.39179 18.8793 9.07445 19.2893 9.83315 19.4413C10.5919 19.5933 11.3798 19.4779 12.063 19.1147C12.7463 18.7515 13.2826 18.1629 13.581 17.449C13.7011 17.1277 13.8847 16.8339 14.121 16.5853C14.3572 16.3366 14.6412 16.1382 14.956 16.002C15.2707 15.8657 15.6097 15.7943 15.9527 15.7922C16.2957 15.79 16.6356 15.8571 16.952 15.9894C17.2685 16.1217 17.555 16.3165 17.7943 16.5621C18.0337 16.8077 18.2211 17.0992 18.3451 17.4189C18.4692 17.7387 18.5275 18.0802 18.5165 18.423C18.5055 18.7658 18.4254 19.1029 18.281 19.414C17.6402 20.952 16.5579 22.2655 15.1708 23.1886C13.7837 24.1116 12.1542 24.6028 10.488 24.6ZM10.488 5.09998C9.6011 5.10157 8.75095 5.4546 8.1238 6.08175C7.49664 6.70891 7.14361 7.55905 7.14202 8.44598V9.07198H13.722V7.48598C13.5255 6.78503 13.1006 6.16972 12.5148 5.73752C11.929 5.30532 11.2158 5.08096 10.488 5.09998Z" fill="#39BE92"/>
</g>
<defs>
<clipPath id="clip0">
<rect width="58.738" height="58.623" fill="white"/>
</clipPath>
</defs>
</svg>
