<?xml version="1.0" encoding="UTF-8"?>
<svg width="87px" height="87px" viewBox="0 0 87 87" version="1.1" xmlns="http://www.w3.org/2000/svg" xmlns:xlink="http://www.w3.org/1999/xlink">
    <!-- Generator: Sketch 57.1 (83088) - https://sketch.com -->
    <title>eco</title>
    <desc>Created with Sketch.</desc>
    <g id="Page-1" stroke="none" stroke-width="1" fill="none" fill-rule="evenodd">
        <g id="Desktop-HD" transform="translate(-1090.000000, -990.000000)" fill-rule="nonzero">
            <g id="eco" transform="translate(1090.000000, 990.000000)">
                <path d="M87,43.5 C87,67.5246964 67.5246964,87 43.5,87 C19.4753036,87 0,67.5246964 0,43.5 C0,19.4753036 19.4753036,0 43.5,0 C67.5246964,0 87,19.4753036 87,43.5 Z" id="Path" fill="#4ADEB5"></path>
                <g id="Group" transform="translate(14.103516, 16.652344)" fill="#FFFFFF">
                    <path d="M58.8473968,28.6451111 C58.8473968,28.6364823 58.8480607,28.6278533 58.8480607,28.6198884 C58.8945236,27.217369 57.7973328,26.0411911 56.3948136,25.9894181 C55.8810653,25.9708329 43.7316513,25.6070939 36.6002426,32.7378387 C33.833702,35.5043792 32.4411393,38.5231477 32.4617156,41.7085189 C32.474327,43.7097473 33.0557785,45.3950272 33.6186447,46.6335983 C31.8145523,48.5810624 30.4631424,50.2464294 29.4814453,51.5619964 C28.5004119,50.2464294 27.1490022,48.5810624 25.344246,46.6335983 C25.9071122,45.3950272 26.4892273,43.7097473 26.5018387,41.7091828 C26.5217514,38.5231477 25.1291886,35.5043792 22.3626481,32.7378387 C15.2312394,25.60643 3.08116141,25.9714966 2.56807704,25.9894181 C1.17617798,26.0411911 0.0882796816,27.1994475 0.116821289,28.5886918 C0.0842972227,30.0781632 0.0703581914,41.4383698 6.86922451,48.237236 C9.6158524,50.9832 12.6286468,52.3757629 15.8239746,52.3757629 C15.8671188,52.3757629 19.4480896,52.353859 22.2544556,50.8192521 C25.800911,54.760643 27.1284256,57.1846847 27.1682511,57.2596892 C27.6235885,58.1272201 28.5097046,58.6237106 29.4270173,58.6237106 C29.4389648,58.6237106 29.4509124,58.6217194 29.4635238,58.6217194 C29.4874191,58.6223832 29.5119782,58.6237106 29.5358733,58.6237106 C30.4565048,58.6237106 31.3452759,58.1239014 31.7992859,57.2510604 C31.8351287,57.181366 35.5475235,50.2112503 48.1297074,40.2880783 C49.2348633,39.4159012 49.4240341,37.8129272 48.5525208,36.7084351 C47.6803435,35.6026154 46.0780334,35.4134445 44.9728775,36.2856217 C42.1253585,38.5311126 39.6993255,40.6458435 37.6396866,42.5886612 C37.5905685,42.2952804 37.5613632,41.9912796 37.5593719,41.6766586 C37.548088,39.8792038 38.4129639,38.1348495 40.2051086,36.3427047 C44.0515824,32.4962312 50.2125778,31.4541321 53.6607971,31.1773453 C53.3906478,34.618927 52.3558503,40.7659835 48.4894638,44.6323699 C47.5329895,45.5895081 46.5632401,46.2944183 45.6080933,46.7278519 C44.3263778,47.3106308 43.7588654,48.8213424 44.3409806,50.1030579 C44.7684403,51.0429382 45.6943816,51.5985031 46.6634675,51.5985031 C47.0159225,51.5985031 47.3743515,51.524826 47.7161865,51.3695068 C49.2302169,50.6818542 50.7030945,49.6278076 52.0936661,48.237236 C58.8122177,41.5180207 58.8779297,30.3449935 58.8473968,28.6451111 L58.8473968,28.6451111 Z M10.4734269,44.6323699 C6.6256257,40.783905 5.58419033,34.6182633 5.30806728,31.1713714 C8.75097656,31.4421844 14.8933869,32.4776458 18.757782,36.342041 C20.5499268,38.1341858 21.4154663,39.87854 21.4042914,41.6759949 C21.4015274,41.9912796 21.3723221,42.2946167 21.323204,42.5879974 C19.2635651,40.6451798 16.8375321,38.5311126 13.990677,36.2849578 C12.8848572,35.4127808 11.2818832,35.6026154 10.4110336,36.7077713 C9.53885655,37.8129272 9.72802734,39.4159012 10.833847,40.2874146 C13.8486328,42.6656571 16.3576355,44.8826065 18.4318771,46.8785247 C17.4727478,47.1420365 16.429985,47.2781067 15.8239746,47.2781067 C14.0039519,47.2781067 12.2542878,46.4125671 10.4734269,44.6323699 Z" id="Shape"></path>
                    <path d="M49.3835449,24.6028289 C54.0404663,24.6028289 57.8291931,20.8141023 57.8291931,16.1571809 L57.8291931,8.44564819 C57.8291931,3.78872681 54.0404663,0 49.3835449,0 C44.7266235,0 40.9378967,3.78872681 40.9378967,8.44564819 L40.9378967,16.1571809 C40.9378967,20.8141023 44.7266235,24.6028289 49.3835449,24.6028289 Z M46.035553,8.44564819 C46.035553,6.59973912 47.5376358,5.09765625 49.3835449,5.09765625 C51.229454,5.09765625 52.7315369,6.59973912 52.7315369,8.44564819 L52.7315369,16.1571809 C52.7315369,18.0030899 51.229454,19.5051726 49.3835449,19.5051726 C47.5376358,19.5051726 46.035553,18.0030899 46.035553,16.1571809 L46.035553,8.44564819 Z" id="Shape"></path>
                    <path d="M29.9918747,24.6028289 C33.9272918,24.6028289 37.3071442,21.9298783 38.2111816,18.1039811 C38.5350952,16.7339859 37.6868133,15.3606721 36.3168182,15.0374222 C34.946823,14.7128449 33.5741731,15.5617904 33.2502595,16.9317855 C32.8924942,18.4464798 31.5523682,19.5051726 29.9918747,19.5051726 C28.1459656,19.5051726 26.6438827,18.0030899 26.6438827,16.1571809 L26.6438827,8.44564819 C26.6438827,6.59973912 28.1459656,5.09765625 29.9918747,5.09765625 C31.6207352,5.09765625 32.9708175,6.16564174 33.2754822,7.69560233 C33.5496139,9.07621757 34.892395,9.97295375 36.2723465,9.69815831 C37.6529618,9.42402657 38.549698,8.08190918 38.2749023,6.70129395 C37.5029525,2.81831368 34.0195541,0 29.9918747,0 C25.3349533,0 21.5462265,3.78872681 21.5462265,8.44564819 L21.5462265,16.1571809 C21.5462265,20.8141023 25.3349533,24.6028289 29.9918747,24.6028289 L29.9918747,24.6028289 Z" id="Path"></path>
                    <path d="M10.6002044,24.6028289 C14.017891,24.6028289 17.0778122,22.565094 18.3953704,19.4115829 C18.9376603,18.1126099 18.3250122,16.6198197 17.0260392,16.0768661 C15.7277298,15.5345764 14.2342758,16.1472245 13.6919861,17.4461975 C13.1689453,18.6967163 11.9555969,19.5051726 10.6002044,19.5051726 C8.75429531,19.5051726 7.25221261,18.0030899 7.25221261,16.1571809 L7.25221261,14.1698914 L16.3835221,14.1698914 C17.7913513,14.1698914 18.9323502,13.0288925 18.9323502,11.6210632 L18.9323502,7.19844814 C18.9323502,7.03184501 18.9157561,6.86457833 18.8838958,6.70129395 C18.1112824,2.81831368 14.627884,0 10.6002044,0 C5.943283,0 2.15455636,3.78872681 2.15455636,8.44564819 L2.15455636,16.1571809 C2.15455636,20.8141023 5.943283,24.6028289 10.6002044,24.6028289 Z M7.25221261,8.44564819 C7.25221261,6.59973912 8.75429531,5.09765625 10.6002044,5.09765625 C12.1540604,5.09765625 13.4536972,6.06939697 13.834694,7.48585519 L13.834694,9.07223511 L7.25221261,9.07223511 L7.25221261,8.44564819 Z" id="Shape"></path>
                </g>
            </g>
        </g>
    </g>
</svg>