<svg width="140" height="46" viewBox="0 0 140 46" fill="none" xmlns="http://www.w3.org/2000/svg">
<path d="M11.6612 42.9913C8.03765 40.9855 5.13882 38.2442 3.09647 34.7674C1.05412 31.2907 0 27.3459 0 23C0 18.6541 1.05412 14.7093 3.09647 11.2326C5.13882 7.75581 8.03765 5.01453 11.6612 3.00872C15.3506 1.00291 19.4353 0 23.9812 0C28.5271 0 32.6118 1.00291 36.2353 3.00872C39.8588 5.01453 42.6918 7.75581 44.8 11.2326C46.9082 14.7093 47.8965 18.6541 47.8965 23C47.8965 27.3459 46.8424 31.2907 44.8 34.7674C42.6918 38.2442 39.8588 40.9855 36.2353 42.9913C32.6118 44.9971 28.5271 46 23.9812 46C19.4353 46 15.3506 44.9971 11.6612 42.9913ZM30.9647 35.3692C33.0729 34.1657 34.72 32.4942 35.9059 30.2878C37.0918 28.1483 37.6847 25.6744 37.6847 22.9331C37.6847 20.1919 37.0918 17.718 35.9059 15.5785C34.72 13.439 33.0729 11.7674 30.9647 10.564C28.8565 9.36047 26.5506 8.75872 23.9812 8.75872C21.4118 8.75872 19.04 9.36047 16.9976 10.564C14.8894 11.7674 13.2424 13.439 12.0565 15.5785C10.8706 17.718 10.2776 20.1919 10.2776 22.9331C10.2776 25.6744 10.8706 28.1483 12.0565 30.2878C13.2424 32.4273 14.8894 34.0988 16.9976 35.3692C19.1059 36.5727 21.4118 37.1744 23.9812 37.1744C26.5506 37.2413 28.8565 36.5727 30.9647 35.3692Z" fill="white"/>
<path d="M85.5812 42.9913V9.02617H76.8188V0.735474H95.7271V45.1977H87.4259" fill="#4ADEB5"/>
<path d="M95.7271 41.3866L85.5812 28.8169V23.6686L95.7271 36.2384V41.3866Z" fill="url(#paint0_linear)"/>
<path d="M95.727 40.0494V45.1977H87.4259L65.5529 18.2529V45.2645H55.5388V0.735474H63.9059L95.727 40.0494Z" fill="white"/>
<path d="M140 36.9738V45.1977H106.071V0.735474H139.144V8.95931H116.151V18.5872H136.508V26.6105H116.151V36.907H140V36.9738Z" fill="white"/>
<defs>
<linearGradient id="paint0_linear" x1="89.2705" y1="33.6923" x2="91.8507" y2="31.578" gradientUnits="userSpaceOnUse">
<stop/>
<stop offset="0.363" stop-color="#1C5545" stop-opacity="0.7096"/>
<stop offset="0.8023" stop-color="#3DB795" stop-opacity="0.3582"/>
<stop offset="1" stop-color="#4ADEB5" stop-opacity="0.2"/>
</linearGradient>
</defs>
</svg>
