<?xml version="1.0" encoding="UTF-8" standalone="no"?><!DOCTYPE svg PUBLIC "-//W3C//DTD SVG 1.1//EN" "http://www.w3.org/Graphics/SVG/1.1/DTD/svg11.dtd"><svg width="100%" height="100%" viewBox="0 0 525 449" version="1.1" xmlns="http://www.w3.org/2000/svg" xmlns:xlink="http://www.w3.org/1999/xlink" xml:space="preserve" xmlns:serif="http://www.serif.com/" style="fill-rule:evenodd;clip-rule:evenodd;stroke-linejoin:round;stroke-miterlimit:2;"><g id="Layer-1" serif:id="Layer 1"><g><path d="M443.811,231.998c0,95.821 -77.679,173.5 -173.5,173.5c-95.822,0 -173.5,-77.679 -173.5,-173.5c0,-95.821 77.678,-173.5 173.5,-173.5c95.821,0 173.5,77.679 173.5,173.5" style="fill:#302e2e;fill-rule:nonzero;"/><path d="M286.865,173.477l16.318,0l0,156.618l6.274,11.031l43.543,-0.016l0,-218.222l-66.135,0l0,50.589Z" style="fill:#4adeb5;fill-rule:nonzero;"/><path d="M233.415,122.871l-45.794,0.017l0,218.222l49.816,0l0,-211.167l-4.022,-7.072Z" style="fill:#fff;fill-rule:nonzero;"/><path d="M233.415,122.871l-45.794,0.017l0,4.015l121.836,214.223l43.543,-0.016l0,-7.975l-119.585,-210.264Z" style="fill:#fff;fill-rule:nonzero;"/></g></g></svg>