<svg width="214" height="40" viewBox="0 0 214 40" fill="none" xmlns="http://www.w3.org/2000/svg">
<path d="M35.843 38.2C35.6874 38.2074 35.5353 38.1527 35.42 38.048C35.3826 38.0101 35.3532 37.9651 35.3335 37.9156C35.3137 37.8661 35.304 37.8132 35.305 37.76C35.3076 37.6834 35.3259 37.6082 35.359 37.539L37.706 30.98H34.2C33.8918 30.9808 33.5887 30.9009 33.3208 30.7483C33.053 30.5957 32.8297 30.3757 32.6733 30.1101C32.5168 29.8445 32.4325 29.5426 32.4287 29.2344C32.425 28.9261 32.502 28.6223 32.652 28.353L36.677 21.117H42.877L39.677 26.317H43.722C43.9658 26.3158 44.2046 26.3854 44.4096 26.5173C44.6146 26.6492 44.777 26.8377 44.877 27.06C44.984 27.287 45.0227 27.5403 44.9882 27.7889C44.9538 28.0374 44.8477 28.2706 44.683 28.46L36.437 37.971C36.2778 38.1226 36.0668 38.2077 35.847 38.209L35.843 38.2ZM11.873 30.64C10.7834 30.6382 9.72098 30.2999 8.83088 29.6715C7.94077 29.0431 7.26643 28.1551 6.90001 27.129H5.27701C3.87857 27.1282 2.53756 26.5727 1.54825 25.5843C0.558936 24.5959 0.00212858 23.2554 9.96139e-06 21.857V16.751C-0.00221144 14.9852 0.367122 13.2387 1.08401 11.625L3.84601 4.543C4.46101 2.874 6.53601 2 8.26601 2H21.531C22.6879 2.01892 23.8074 2.41301 24.721 3.123C24.765 3.156 34.349 11.975 34.445 12.064L40.364 14.264C40.5805 14.3443 40.7791 14.4664 40.9483 14.6235C41.1176 14.7805 41.2542 14.9694 41.3504 15.1793C41.4467 15.3892 41.5006 15.616 41.5091 15.8467C41.5176 16.0774 41.4805 16.3076 41.4 16.524C41.3195 16.7405 41.197 16.9389 41.0397 17.1081C40.8824 17.2772 40.6933 17.4137 40.4833 17.5097C40.2732 17.6058 40.0463 17.6594 39.8154 17.6677C39.5846 17.676 39.3544 17.6387 39.138 17.558L34.144 15.612H3.58901C3.54195 15.9902 3.51824 16.3709 3.51801 16.752V21.858C3.51854 22.3243 3.70406 22.7713 4.03385 23.1009C4.36365 23.4305 4.81075 23.6157 5.27701 23.616H6.90001C7.26405 22.5876 7.93786 21.6974 8.82869 21.0677C9.71953 20.4381 10.7836 20.1 11.8745 20.1C12.9654 20.1 14.0295 20.4381 14.9203 21.0677C15.8112 21.6974 16.485 22.5876 16.849 23.616H28.149C28.615 23.616 29.0619 23.8011 29.3914 24.1306C29.7209 24.4601 29.906 24.907 29.906 25.373C29.906 25.839 29.7209 26.2859 29.3914 26.6154C29.0619 26.9449 28.615 27.13 28.149 27.13H16.849C16.4827 28.157 15.8081 29.0457 14.9174 29.6745C14.0266 30.3034 12.9633 30.6416 11.873 30.643V30.64ZM11.85 23.588C11.5049 23.588 11.1675 23.6903 10.8805 23.8821C10.5936 24.0738 10.3699 24.3464 10.2378 24.6652C10.1058 24.9841 10.0712 25.3349 10.1385 25.6734C10.2059 26.0119 10.3721 26.3229 10.6161 26.5669C10.8602 26.8109 11.1711 26.9771 11.5096 27.0445C11.8481 27.1118 12.1989 27.0772 12.5178 26.9452C12.8366 26.8131 13.1092 26.5894 13.3009 26.3025C13.4927 26.0155 13.595 25.6781 13.595 25.333C13.5937 24.8707 13.4092 24.4278 13.0819 24.1013C12.7546 23.7748 12.3113 23.5913 11.849 23.591L11.85 23.588ZM15.63 5.635V12.178H29.225L22.491 6C22.2023 5.78023 21.8535 5.65361 21.491 5.637L15.63 5.635ZM8.25601 5.635C7.84672 5.6359 7.44601 5.75237 7.10001 5.971L4.65301 12.178H12.14V5.635H8.25601Z" fill="white"/>
<path d="M211.265 39.9995C210.675 39.9994 210.101 39.8085 209.628 39.4552C209.156 39.1018 208.81 38.6051 208.643 38.0392C208.476 37.4732 208.497 36.8684 208.702 36.3152C208.907 35.7619 209.285 35.2899 209.781 34.9695V30.7145L207.572 28.5055H203.609V32.2645C203.607 33.5071 203.113 34.6983 202.234 35.577C201.356 36.4556 200.165 36.9499 198.922 36.9515C198.508 36.9515 198.11 36.7869 197.817 36.4939C197.524 36.2008 197.36 35.8034 197.36 35.389C197.36 34.9746 197.524 34.5772 197.817 34.2842C198.11 33.9911 198.508 33.8265 198.922 33.8265C199.336 33.826 199.733 33.6612 200.026 33.3684C200.319 33.0756 200.483 32.6786 200.484 32.2645V28.1995C200.483 27.7854 200.319 27.3884 200.026 27.0956C199.733 26.8028 199.336 26.638 198.922 26.6375H188.375V30.3095C188.375 30.7239 188.21 31.1213 187.917 31.4144C187.624 31.7074 187.227 31.872 186.813 31.872C186.398 31.872 186.001 31.7074 185.708 31.4144C185.415 31.1213 185.25 30.7239 185.25 30.3095V26.6405H178.687C178.273 26.641 177.877 26.8054 177.584 27.0975C177.291 27.3897 177.126 27.7859 177.125 28.1995V32.2625C177.126 32.6766 177.29 33.0736 177.583 33.3664C177.876 33.6592 178.273 33.824 178.687 33.8245H191.109C191.523 33.8245 191.921 33.9891 192.214 34.2822C192.507 34.5752 192.672 34.9726 192.672 35.387C192.672 35.8014 192.507 36.1988 192.214 36.4919C191.921 36.7849 191.523 36.9495 191.109 36.9495H178.687C177.445 36.9479 176.254 36.454 175.376 35.576C174.497 34.698 174.002 33.5076 174 32.2655V28.1995C174 27.0474 174.425 25.9358 175.194 25.0775C174.426 24.2257 174.001 23.1201 174 21.9735V17.8735C174.001 16.7285 174.426 15.6245 175.192 14.7735C174.423 13.9192 173.998 12.81 174 11.6605V7.56051C174.003 6.31998 174.499 5.13142 175.377 4.25583C176.256 3.38023 177.446 2.88918 178.687 2.89051H198.922C200.162 2.88918 201.352 3.37968 202.23 4.25441C203.109 5.12914 203.605 6.31668 203.609 7.55651V11.3175H207.493L209.7 9.10851V4.97751C209.222 4.64488 208.863 4.1685 208.675 3.61772C208.487 3.06693 208.48 2.47047 208.654 1.91516C208.828 1.35985 209.175 0.874658 209.644 0.530201C210.114 0.185745 210.68 0 211.263 0C211.845 0 212.411 0.185745 212.881 0.530201C213.35 0.874658 213.697 1.35985 213.871 1.91516C214.045 2.47047 214.038 3.06693 213.85 3.61772C213.662 4.1685 213.303 4.64488 212.825 4.97751V9.75551C212.826 9.96077 212.786 10.1641 212.707 10.3538C212.629 10.5435 212.513 10.7157 212.368 10.8605L209.243 13.9855C209.098 14.131 208.926 14.2463 208.736 14.3249C208.547 14.4035 208.343 14.4438 208.138 14.4435H202.683C202.599 14.5545 202.51 14.6625 202.418 14.7645C203.183 15.6158 203.607 16.7197 203.609 17.8645V18.3455H209.022C209.355 17.8679 209.831 17.5089 210.382 17.3208C210.933 17.1326 211.529 17.1252 212.084 17.2995C212.64 17.4738 213.125 17.8208 213.469 18.29C213.814 18.7591 214 19.326 214 19.908C214 20.49 213.814 21.0569 213.469 21.526C213.125 21.9952 212.64 22.3422 212.084 22.5165C211.529 22.6908 210.933 22.6834 210.382 22.4953C209.831 22.3071 209.355 21.9481 209.022 21.4705H203.609V21.9705C203.609 23.1185 203.183 24.2257 202.415 25.0785C202.505 25.1785 202.588 25.2785 202.662 25.3785H208.219C208.632 25.3807 209.027 25.5452 209.319 25.8365L212.445 28.9615C212.737 29.2554 212.901 29.6524 212.902 30.0665V35.0755C213.362 35.4193 213.702 35.8991 213.874 36.4471C214.046 36.995 214.041 37.5831 213.86 38.128C213.679 38.6729 213.33 39.147 212.865 39.4829C212.399 39.8188 211.839 39.9996 211.265 39.9995ZM178.687 16.3275C178.276 16.3254 177.88 16.4865 177.587 16.7756C177.294 17.0647 177.128 17.4581 177.125 17.8695V21.9695C177.128 22.3809 177.294 22.7742 177.587 23.0631C177.88 23.352 178.276 23.5129 178.687 23.5105H198.922C199.333 23.5129 199.729 23.352 200.022 23.0631C200.315 22.7742 200.481 22.3809 200.484 21.9695V17.8695C200.481 17.4581 200.315 17.0647 200.022 16.7756C199.729 16.4865 199.333 16.3254 198.922 16.3275H188.375V19.9995C188.375 20.4139 188.21 20.8113 187.917 21.1044C187.624 21.3974 187.227 21.562 186.813 21.562C186.398 21.562 186.001 21.3974 185.708 21.1044C185.415 20.8113 185.25 20.4139 185.25 19.9995V16.3275H178.687ZM178.687 6.01551C178.276 6.01338 177.88 6.17438 177.588 6.46324C177.295 6.75209 177.128 7.14523 177.125 7.55651V11.6565C177.128 12.0681 177.294 12.4618 177.587 12.7511C177.88 13.0404 178.275 13.2016 178.687 13.1995H198.922C199.333 13.2016 199.729 13.0405 200.022 12.7514C200.315 12.4624 200.481 12.069 200.484 11.6575V7.55751C200.481 7.14606 200.315 6.75266 200.022 6.46359C199.729 6.17452 199.333 6.01338 198.922 6.01551H188.375V9.60851C188.375 10.0229 188.21 10.4203 187.917 10.7134C187.624 11.0064 187.227 11.171 186.813 11.171C186.398 11.171 186.001 11.0064 185.708 10.7134C185.415 10.4203 185.25 10.0229 185.25 9.60851V6.01551H178.687ZM181.344 31.8755C181.035 31.8757 180.732 31.7842 180.475 31.6125C180.218 31.4408 180.018 31.1968 179.899 30.9111C179.781 30.6255 179.75 30.3111 179.81 30.0078C179.87 29.7045 180.019 29.426 180.238 29.2073C180.456 28.9887 180.735 28.8398 181.038 28.7795C181.342 28.7192 181.656 28.7503 181.942 28.8687C182.227 28.9871 182.471 29.1876 182.643 29.4448C182.815 29.702 182.906 30.0043 182.906 30.3135C182.905 30.7274 182.74 31.1242 182.448 31.4168C182.155 31.7094 181.758 31.874 181.344 31.8745V31.8755ZM181.266 21.5615C180.957 21.5615 180.655 21.4699 180.398 21.2983C180.141 21.1266 179.941 20.8827 179.823 20.5973C179.705 20.3118 179.674 19.9978 179.734 19.6948C179.794 19.3918 179.943 19.1135 180.162 18.895C180.38 18.6766 180.658 18.5278 180.961 18.4675C181.264 18.4073 181.578 18.4382 181.864 18.5564C182.149 18.6746 182.393 18.8748 182.565 19.1317C182.736 19.3886 182.828 19.6906 182.828 19.9995C182.827 20.4136 182.663 20.8106 182.37 21.1034C182.077 21.3962 181.68 21.561 181.266 21.5615ZM181.266 11.1705C180.957 11.1705 180.655 11.0789 180.398 10.9073C180.141 10.7356 179.941 10.4917 179.823 10.2063C179.705 9.92085 179.674 9.60678 179.734 9.30378C179.794 9.00078 179.943 8.72246 180.162 8.50401C180.38 8.28556 180.658 8.1368 180.961 8.07653C181.264 8.01626 181.578 8.04719 181.864 8.16541C182.149 8.28364 182.393 8.48384 182.565 8.74071C182.736 8.99758 182.828 9.29958 182.828 9.60851C182.828 10.0228 182.663 10.42 182.37 10.7131C182.077 11.0061 181.68 11.171 181.266 11.1715V11.1705Z" fill="white"/>
<line x1="83" y1="15.5" x2="146" y2="15.5" stroke="#4ADEB5"/>
<circle cx="80.5" cy="15.5" r="4.5" fill="#4ADEB5"/>
</svg>
